<svg width="24" height="24" viewBox="0 0 24 24" fill="none" xmlns="http://www.w3.org/2000/svg">
<g id="home-7_svgrepo.com">
<path id="Vector" d="M9.04058 18.7199C9.04058 19.1176 9.36294 19.4399 9.7606 19.4399C10.1582 19.4399 10.4806 19.1176 10.4806 18.7199H9.04058ZM13.5219 18.7199C13.5219 19.1176 13.8443 19.4399 14.2419 19.4399C14.6395 19.4399 14.9619 19.1176 14.9619 18.7199H13.5219ZM9.7606 19.4399C10.1582 19.4399 10.4806 19.1176 10.4806 18.7199C10.4806 18.3223 10.1582 17.9999 9.7606 17.9999V19.4399ZM7.51994 18.7199L7.51261 19.4399H7.51994V18.7199ZM5.56922 17.0428L4.84972 17.0695C4.85082 17.0991 4.85375 17.1287 4.85851 17.1581L5.56922 17.0428ZM5.31098 10.0742L6.03049 10.0475C6.02928 10.0146 6.02579 9.98179 6.02008 9.94934L5.31098 10.0742ZM6.3785 7.91227L6.05116 7.27096L6.04654 7.27336L6.3785 7.91227ZM11.1161 5.49403L11.4435 6.13532L11.4449 6.13456L11.1161 5.49403ZM12.8873 5.49403L12.5585 6.13456L12.56 6.13532L12.8873 5.49403ZM17.6249 7.91227L17.9569 7.27335L17.9523 7.27098L17.6249 7.91227ZM18.6924 10.0742L17.9833 9.94934C17.9776 9.98176 17.9742 10.0145 17.9729 10.0474L18.6924 10.0742ZM18.4332 17.0428L19.1439 17.1581C19.1487 17.1288 19.1516 17.0992 19.1528 17.0696L18.4332 17.0428ZM16.4825 18.7199V19.44L16.4898 19.4399L16.4825 18.7199ZM14.2419 17.9999C13.8443 17.9999 13.5219 18.3223 13.5219 18.7199C13.5219 19.1176 13.8443 19.4399 14.2419 19.4399V17.9999ZM9.7606 17.9999C9.36294 17.9999 9.04058 18.3223 9.04058 18.7199C9.04058 19.1176 9.36294 19.4399 9.7606 19.4399V17.9999ZM14.2419 19.4399C14.6395 19.4399 14.9619 19.1176 14.9619 18.7199C14.9619 18.3223 14.6395 17.9999 14.2419 17.9999V19.4399ZM10.4806 18.7199V16.4802H9.04058V18.7199H10.4806ZM10.4806 16.4802C10.4806 15.6404 11.1614 14.9596 12.0012 14.9596V13.5196C10.3661 13.5196 9.04058 14.8451 9.04058 16.4802H10.4806ZM12.0012 14.9596C12.8411 14.9596 13.5219 15.6404 13.5219 16.4802H14.9619C14.9619 14.8451 13.6363 13.5196 12.0012 13.5196V14.9596ZM13.5219 16.4802V18.7199H14.9619V16.4802H13.5219ZM9.7606 17.9999H7.51994V19.4399H9.7606V17.9999ZM7.52728 18C6.90595 17.9937 6.3794 17.5409 6.27995 16.9276L4.85851 17.1581C5.07011 18.4632 6.19053 19.4265 7.51261 19.4399L7.52728 18ZM6.28873 17.0162L6.03049 10.0475L4.59148 10.1008L4.84972 17.0695L6.28873 17.0162ZM6.02008 9.94934C5.92029 9.38254 6.19978 8.81652 6.71047 8.55117L6.04654 7.27336C4.97791 7.82861 4.39308 9.013 4.60189 10.199L6.02008 9.94934ZM6.70585 8.55356L11.4435 6.13532L10.7888 4.85274L6.05116 7.27096L6.70585 8.55356ZM11.4449 6.13456C11.7945 5.95515 12.209 5.95515 12.5585 6.13456L13.2161 4.8535C12.4538 4.46216 11.5497 4.46216 10.7873 4.8535L11.4449 6.13456ZM12.56 6.13532L17.2976 8.55356L17.9523 7.27098L13.2147 4.85274L12.56 6.13532ZM17.293 8.55117C17.8037 8.81652 18.0831 9.38254 17.9833 9.94934L19.4015 10.199C19.6103 9.013 19.0255 7.82861 17.9569 7.27335L17.293 8.55117ZM17.9729 10.0474L17.7137 17.0161L19.1528 17.0696L19.412 10.1009L17.9729 10.0474ZM17.7226 16.9276C17.6231 17.5409 17.0965 17.9937 16.4751 18L16.4898 19.4399C17.8119 19.4265 18.9323 18.4632 19.1439 17.1581L17.7226 16.9276ZM16.4825 17.9999H14.2419V19.4399L16.4825 19.44V17.9999ZM9.7606 19.4399H14.2419V17.9999H9.7606V19.4399Z" fill="#C2C6D6"/>
</g>
</svg>
