<svg width="300" height="160" viewBox="0 0 300 160" fill="none" xmlns="http://www.w3.org/2000/svg">
<path d="M409.697 91.937L359.541 131.257L352.811 136.526L263.024 206.906L203.895 186.125L179.096 30.1642L177.235 18.4251L133.618 -59.1726C133.618 -59.1726 173.356 -80.1809 251.006 -82.1983C259.928 -82.4238 269.354 -82.4073 279.266 -82.0766L282.153 -110.18L311.143 -107.641L306.5 -67.8692C306.5 -67.8692 326.047 -61.0337 348.22 -47.0698C367.871 -34.7218 389.575 -16.7923 401.575 6.91142C417.227 43.4353 409.697 91.937 409.697 91.937Z" fill="#9747FF"/>
<path d="M370.165 75.4406L266.997 103.948L268.9 141.118C268.9 141.118 270.545 186.225 226.939 190.874L210.895 191.224L198.391 12.9472C198.391 12.9472 222.414 4.79691 233.11 12.9472C243.806 21.0974 256.618 42.7409 260.085 60.9222L409.618 36.7759V48.3669L370.165 75.4406Z" fill="#5B00D1"/>
<path d="M228.96 -2.26074L179.096 30.1658L174.154 12.9455L228.96 -2.26074Z" fill="#9747FF"/>
<path d="M179.589 18.4283C179.589 18.4283 243.389 -14.3076 259.51 80.2109C268.97 154.162 265.556 182.778 211.178 188.687L196.8 45.4329L179.589 18.4283Z" fill="#73392D"/>
<path d="M241.436 133.583C241.255 157.937 235.348 174.475 221.608 183.591C221.608 183.591 221.608 183.591 221.591 183.591C209.809 191.407 192.284 193.76 167.717 190.88C167.717 190.88 122.004 235.606 77.2462 232.644C48.2851 230.718 19.7189 208.816 4.23458 141.893C1.55239 125.438 0.0878664 110.711 0.00559054 97.6782C-0.356423 50.9949 16.8392 26.1147 58.5696 22.3464C75.7488 20.7996 97.0747 22.8236 123.057 28.369C123.057 28.369 129.985 30.1297 139.973 29.9158C149.04 29.7183 160.641 27.8753 171.88 21.6059C180.93 16.5706 191.741 15.2378 201.549 18.5782C215.667 23.3502 227.86 36.7776 235.825 80.2028C239.511 100.969 241.551 118.724 241.436 133.583Z" fill="#E67F6A"/>
<path d="M241.436 133.583C241.255 157.937 235.348 174.475 221.608 183.591C221.608 183.591 221.608 183.591 221.591 183.591C209.809 191.407 192.284 193.76 167.717 190.88C167.717 190.88 122.004 235.606 77.2462 232.644C48.2851 230.718 19.7189 208.816 4.23461 141.893C1.55241 125.438 0.0878911 110.711 0.00561523 97.6782C0.285353 52.624 17.5962 28.5829 58.5696 24.8805C75.7488 23.3337 97.0747 25.3577 123.057 30.9031C123.057 30.9031 129.985 32.6638 139.973 32.4499C149.04 32.2524 160.641 30.4095 171.88 24.14C180.93 19.1047 191.741 17.7719 201.549 21.1123C215.667 25.8843 227.861 39.3117 235.825 82.7369C239.313 102.335 241.304 119.267 241.436 133.583Z" fill="#B45946"/>
<path d="M126.151 97.2832L123.304 158.529H116.064C116.064 158.529 103.937 148.196 92.4179 144.296C80.8992 140.396 23.4213 77.4712 57.5 23.1526L58.5696 22.3464C75.7488 20.7996 97.0747 22.8236 123.057 28.369C123.057 28.369 129.985 30.1296 139.973 29.9157C139.052 30.6068 101.83 58.7945 126.151 97.2832Z" fill="#994C3C"/>
<path d="M108.972 162.956L92.2533 166.444L84.1903 111.171H102.094L108.1 156.341L108.972 162.956Z" fill="#D1804F"/>
<path d="M108.1 156.341L97.7823 158.497L90.8711 111.171H102.094L108.1 156.341Z" fill="#E29363"/>
<path d="M162.091 140.518C178.623 137.833 189.563 120.492 186.525 101.786C183.487 83.0789 167.622 70.0906 151.09 72.7753C134.558 75.4601 123.619 92.8012 126.657 111.508C129.694 130.214 145.559 143.203 162.091 140.518Z" fill="#6B222D"/>
<path d="M513.605 59.2225L456.044 64.0767C454.531 64.2083 453.017 64.0109 451.585 63.5008L437.829 58.5807L115.932 130.852L112.905 116.24L108.972 97.2832L435.492 32.4334L442.37 24.2716C443.851 22.5274 445.842 21.2932 448.08 20.7831L505.344 7.58609C506.134 7.40508 506.907 7.37214 507.664 7.45442C510.709 7.76707 513.308 10.1037 513.819 13.296L519.907 51.143C520.565 55.158 517.653 58.8769 513.605 59.2225Z" fill="#D1885C"/>
<path d="M506.2 45.5811L448.64 50.4518C447.126 50.5835 445.612 50.386 444.18 49.8759L430.424 44.9558L112.905 116.24L108.972 97.2832L435.492 32.4334L442.37 24.2716C443.851 22.5274 445.842 21.2932 448.08 20.7831L505.344 7.58609C506.134 7.40508 506.907 7.37214 507.664 7.45442L512.502 37.5016C513.16 41.5331 510.248 45.252 506.2 45.5811Z" fill="#E29363"/>
<path d="M108.1 103.948L491.479 23.1592L490.023 16.0177" stroke="#994C3C" stroke-width="0.5" stroke-miterlimit="10"/>
<path d="M108.977 110.105L471.251 33.4899V21.843" stroke="#994C3C" stroke-width="0.5" stroke-miterlimit="10"/>
<path d="M108.977 113.245L451.022 40.842V25.5272" stroke="#994C3C" stroke-width="0.5" stroke-miterlimit="10"/>
<path d="M114.67 124.762L498.26 42.6652L501.54 56.9581" stroke="#994C3C" stroke-width="0.5" stroke-miterlimit="10"/>
<path d="M111.753 119.623L474.209 42.6652L478.172 55.5018" stroke="#994C3C" stroke-width="0.5" stroke-miterlimit="10"/>
<path d="M456.076 55.2469L452.507 43.7513L111.753 117.77" stroke="#994C3C" stroke-width="0.5" stroke-miterlimit="10"/>
<path d="M138.114 121.127L146.555 130.967L116.953 153.576C116.953 153.576 89.3901 135.69 70.4831 104.096C37.7538 49.3658 58.1911 -22.2966 114.748 -51.7678C126.019 -57.6423 133.622 -59.1726 133.622 -59.1726L177.228 18.43L177.294 18.8249C159.127 20.5034 93.9482 31.2486 115.587 98.0566C116.985 102.401 120.606 105.692 125.049 106.761L138.97 110.102L138.114 121.127Z" fill="#FF965A"/>
<path d="M138.54 128.945L146.552 130.974L159.083 146.678C160.903 148.959 160.401 152.304 157.993 153.952C155.843 155.423 152.924 155.005 151.275 152.987L137.084 133.478L138.54 128.945Z" fill="#FF965A"/>
<path d="M131.15 135.466L138.374 137.218L149.167 150.409C150.924 152.556 150.585 155.727 148.413 157.453C146.305 159.128 143.246 158.824 141.512 156.765L129.139 139.488L131.15 135.466Z" fill="#FF965A"/>
<path d="M122.019 143.728L128.323 141.12L138.961 153.743C140.584 155.668 140.248 158.564 138.229 160.066C136.43 161.404 133.911 161.166 132.397 159.514L121.315 145.375L122.019 143.728Z" fill="#FF965A"/>
<path d="M115.932 147.967L116.948 153.583L124.005 161.649C125.419 163.265 127.885 163.397 129.463 161.941C131.007 160.516 131.107 158.11 129.689 156.56L120.716 146.772L115.932 147.967Z" fill="#FF965A"/>
<path d="M134.041 116.021L138.779 110.105L151.156 120.439C153.072 122.038 153.264 124.912 151.581 126.753C149.935 128.551 147.138 128.66 145.359 126.993L139.118 121.148L134.041 116.021Z" fill="#FF965A"/>
<path d="M433.007 194.171C433.32 241.562 394.206 279.853 346.831 280.495L311.222 280.972L258.977 281.68L248.462 265.422L243.575 257.886L224.323 228.069L338.587 109.279C345.202 102.401 354.861 99.4059 364.208 101.348C379.116 104.408 400.952 114.265 417.72 144.23C417.72 144.23 417.72 144.246 417.737 144.296C422.739 153.214 427.281 163.927 431.049 176.762C432.365 182.422 432.958 188.264 433.007 194.171Z" fill="#275E92"/>
<path d="M433.007 194.171C433.32 241.562 394.206 279.853 346.831 280.495L311.222 280.972L306.45 278.323L282.886 258.56L316.932 243.52L324.123 254.183H370.165C436.166 240.377 418.28 147.044 417.737 144.296C422.739 153.214 427.281 163.927 431.049 176.762C432.365 182.422 432.958 188.264 433.007 194.171Z" fill="#21507D"/>
</svg>
