<svg width="486" height="460" viewBox="0 0 486 460" fill="none" xmlns="http://www.w3.org/2000/svg">
<path d="M259.868 317.928C233.045 304.887 208.656 318.786 181.872 314.679C157.286 310.903 135.793 294.946 114.218 283.74C80.9891 266.489 56.4947 238.894 46.6775 203.22C31.4884 148.063 54.6746 73.6848 23.0376 23.9299C-5.36881 -20.739 -54.3028 -13.0402 -85.9963 21.6879C-124.135 63.4934 -119.713 124.326 -151.94 168.594C-178.319 204.84 -238.384 200.161 -274.044 223.829C-321.522 255.321 -325.43 323.157 -297.548 368.272C-267.334 417.176 -193.817 421.27 -168.596 471.166C-136.297 535.046 -175.068 602.929 -169.47 669.441C-166.876 700.271 -151.479 733.174 -119.912 742.776C-85.2478 753.329 -56.8308 722.949 -30.474 705.382C22.7975 669.884 100.394 735.861 138.273 769.36C197.882 822.079 290.318 835.875 350.748 772.755C404.474 716.609 413.736 598.191 345.286 548.826C314.161 526.364 241.533 519.516 231.085 477.779C222.202 442.363 255.716 421.923 270.583 394.927C283.531 371.437 287.923 331.569 259.868 317.928Z" stroke="#020403" stroke-width="0.8" stroke-miterlimit="10"/>
<path d="M-258.53 233.686C-309.853 266.282 -308.266 336.557 -282.163 383.225C-254.938 431.901 -186.126 437.07 -162.969 486.198C-160.498 491.432 -158.47 496.691 -156.861 501.984C-138.996 560.778 -168.091 620.844 -160.427 679.032C-156.542 708.543 -140.131 739.995 -108.921 749.892C-74.6997 760.738 -46.3816 733.645 -20.369 717.96C31.9015 686.443 106.585 749.069 144.042 780.992C202.69 831.178 292.29 843.551 351.38 782.616C404.11 728.287 414.411 614.706 351.139 565.646C322.333 543.311 254.324 535.448 244.786 494.709C236.627 460.329 268.511 440.129 282.489 413.651C294.843 390.247 298.764 351.386 271.966 337.43C246.333 324.05 222.848 336.203 196.975 331.434C173.189 326.998 152.207 311.138 131.056 299.841C98.618 282.58 74.2631 255.69 63.6709 221.299C47.1595 168.061 66.3454 97.2082 34.3659 49.5258C6.00897 7.24195 -41.1456 13.6131 -72.2706 45.5909C-109.714 84.0969 -106.96 140.444 -138.961 181.647C-165.167 215.378 -223.055 211.157 -258.53 233.686Z" stroke="#020403" stroke-width="0.8" stroke-miterlimit="10"/>
<path d="M-243.016 243.542C-298.235 277.208 -291.098 349.849 -266.778 398.174C-242.457 446.501 -178.434 452.865 -157.343 501.227C-155.091 506.375 -153.232 511.542 -151.784 516.755C-135.55 575.215 -161.566 633.239 -151.387 688.62C-146.204 716.827 -128.783 746.813 -97.9302 757.003C-64.1536 768.142 -35.9661 744.343 -10.266 730.529C40.9454 703.002 112.836 762.198 149.812 792.617C207.592 840.153 294.262 851.218 352.011 792.472C403.746 739.958 415.082 631.187 356.991 582.46C330.498 560.236 267.226 551.349 258.484 511.63C251.14 478.263 281.301 458.323 294.395 432.367C306.157 409.05 309.605 371.199 284.064 356.928C259.622 343.209 237.029 353.666 212.078 348.184C189.084 343.133 168.623 327.325 147.894 315.936C116.25 298.662 92.0349 272.477 80.6677 239.369C62.8376 188.05 78.0391 120.735 45.6959 75.113C17.4114 35.2141 -27.9849 40.2578 -58.5433 69.4886C-95.2892 104.695 -94.2053 156.558 -125.98 194.695C-152.017 225.914 -207.794 222.067 -243.016 243.542Z" stroke="#020403" stroke-width="0.8" stroke-miterlimit="10"/>
<path d="M-227.504 253.398C-286.665 288.096 -273.91 363.034 -251.395 413.123C-229.88 460.985 -170.743 468.661 -151.719 516.255C-149.685 521.316 -147.998 526.399 -146.711 531.527C-132.122 589.668 -155.024 645.654 -142.348 698.209C-135.857 725.12 -117.437 753.632 -86.9427 764.117C-53.6074 775.549 -25.5858 755.053 -0.162868 743.106C49.9239 719.563 119.05 775.367 155.579 804.245C212.438 849.193 296.232 858.892 352.639 802.33C403.381 751.632 415.737 647.654 362.839 599.276C338.657 577.162 280.058 567.27 272.181 528.556C265.6 496.218 294.08 476.513 306.298 451.087C317.464 427.849 320.444 391.017 296.162 376.43C272.914 362.372 251.216 371.102 227.182 364.939C204.983 359.247 185.038 343.515 164.734 332.038C133.883 314.755 109.89 289.24 97.6628 257.448C78.6446 207.995 89.7575 144.274 57.0278 100.707C28.8438 63.1914 -14.8242 66.9092 -44.8159 93.3896C-80.8645 125.297 -81.4506 172.675 -112.999 207.746C-138.867 236.447 -192.58 232.915 -227.504 253.398Z" stroke="#020403" stroke-width="0.8" stroke-miterlimit="10"/>
<path d="M-211.99 263.255C-275.132 298.945 -256.68 376.118 -236.008 428.072C-217.193 475.363 -163.049 484.46 -146.091 531.284C-144.276 536.259 -142.762 541.253 -141.634 546.3C-128.704 604.13 -148.455 658.09 -133.306 707.799C-125.498 733.426 -106.09 760.452 -75.9498 771.232C-43.0594 782.955 -15.2444 765.763 9.94373 755.679C58.8265 736.104 125.264 788.543 161.35 815.874C217.28 858.236 298.204 866.565 353.273 812.188C403.021 763.307 416.386 664.097 368.693 616.094C346.813 594.071 292.896 583.193 285.882 545.481C280.058 514.174 306.854 494.693 318.206 469.805C328.769 446.64 331.289 410.832 308.263 395.93C286.207 381.534 265.402 388.535 242.286 381.694C220.881 375.358 201.483 359.657 181.574 348.138C151.557 330.771 127.683 306.022 114.66 275.526C94.3526 227.972 101.506 167.819 68.3577 126.3C40.3044 91.162 -1.66172 93.5594 -31.0885 117.289C-66.4398 145.897 -68.696 188.792 -100.019 220.798C-125.715 246.983 -177.409 243.707 -211.99 263.255Z" stroke="#020403" stroke-width="0.8" stroke-miterlimit="10"/>
<path d="M-196.476 273.112C-263.643 309.749 -239.39 389.114 -220.625 443.023C-204.394 489.651 -155.358 500.257 -140.467 546.316C-138.871 551.202 -137.529 556.11 -136.556 561.072C-125.293 618.598 -141.854 670.542 -124.266 717.388C-115.123 741.741 -94.7421 767.272 -64.9588 778.346C-32.5114 790.361 -4.95065 776.466 20.0468 768.25C67.648 752.605 131.471 801.714 167.117 827.5C222.11 867.283 300.176 874.235 353.903 822.044C402.655 774.977 417.025 680.506 374.545 632.907C354.962 610.963 305.726 599.116 299.579 562.405C294.511 532.131 319.62 512.864 330.109 488.523C340.066 465.423 342.091 430.699 320.361 415.43C299.459 400.744 279.585 405.966 257.389 398.446C236.777 391.464 217.903 375.838 198.413 364.237C169.199 346.844 145.469 322.802 131.655 293.599C110.055 247.943 113.284 191.362 79.6878 151.89C51.7968 119.123 11.4972 120.207 -17.3629 141.187C-52.0169 166.497 -55.9431 204.906 -87.0381 233.845C-112.565 257.519 -162.265 254.451 -196.476 273.112Z" stroke="#020403" stroke-width="0.8" stroke-miterlimit="10"/>
<path d="M-180.966 282.968C-252.191 320.495 -222.023 402.024 -205.241 457.972C-191.478 503.855 -147.667 516.052 -134.842 561.344C-133.465 566.146 -132.298 570.966 -131.483 575.847C-121.907 633.081 -135.216 683.006 -115.227 726.977C-104.732 750.065 -83.3978 774.091 -53.971 785.46C-21.9668 797.768 5.29565 787.153 30.1502 780.826C76.3814 769.058 137.673 814.892 172.885 839.127C226.937 876.332 302.146 881.904 354.532 831.902C402.292 786.648 417.659 696.88 380.394 649.722C363.106 627.844 318.552 615.041 313.277 579.33C308.959 550.088 332.366 531.028 342.012 507.241C351.354 484.2 352.921 450.522 332.456 434.93C312.74 419.913 293.764 423.39 272.488 415.199C252.667 407.567 234.319 392.022 215.246 380.335C186.831 362.923 163.249 339.58 148.643 311.675C125.743 267.919 125.091 214.905 91.0109 177.483C63.3195 147.076 24.6493 146.856 -3.64235 165.088C-37.6008 187.099 -43.1935 221.024 -74.0661 246.898C-99.4149 268.053 -147.15 265.152 -180.966 282.968Z" stroke="#020403" stroke-width="0.8" stroke-miterlimit="10"/>
<path d="M-165.452 292.824C-240.773 331.184 -204.555 414.863 -189.858 472.921C-178.447 517.999 -139.978 531.848 -129.218 576.371C-128.06 581.086 -127.071 585.823 -126.409 590.616C-118.541 647.57 -128.536 695.473 -106.189 736.565C-94.3201 758.388 -72.0519 780.909 -42.9835 792.573C-11.4224 805.174 15.4941 797.809 40.2497 793.399C85.0298 785.421 143.868 828.072 178.647 850.754C231.751 885.388 304.01 889.468 355.156 841.757C401.827 798.224 418.289 713.209 386.237 666.537C371.242 644.701 331.363 630.972 326.967 596.252C323.397 568.051 345.101 549.184 353.91 525.959C362.627 502.971 363.75 470.342 344.548 454.43C326.019 439.077 307.942 440.814 287.585 431.952C268.56 423.669 250.734 408.206 232.081 396.433C204.465 379.002 181.021 356.359 165.634 329.75C141.43 287.89 136.942 238.439 102.334 203.073C74.8772 175.013 37.8029 173.503 10.0762 188.987C-23.185 207.698 -30.4477 237.138 -61.0925 259.948C-86.2648 278.588 -132.058 275.818 -165.452 292.824Z" stroke="#020403" stroke-width="0.8" stroke-miterlimit="10"/>
<path d="M-149.938 302.68C-229.388 341.808 -186.968 427.647 -174.471 487.87C-165.295 532.094 -132.379 547.665 -123.59 591.403C-122.659 596.032 -121.84 600.682 -121.328 605.39C-115.176 662.065 -121.803 707.938 -97.1429 746.156C-83.878 766.716 -60.6988 787.73 -31.9887 799.685C-0.870744 812.58 25.6591 808.419 50.36 805.97C93.6131 801.682 150.068 841.253 184.421 862.379C236.572 894.448 305.981 897.128 355.794 851.614C401.464 809.886 418.946 729.486 392.095 683.35C379.397 661.532 344.183 646.901 340.672 613.175C337.842 586.01 357.838 567.331 365.821 544.674C373.906 521.731 374.59 490.154 356.653 473.929C339.309 458.238 322.132 458.231 302.695 448.704C284.461 439.764 267.155 424.391 248.924 412.532C222.107 395.086 198.802 373.139 182.635 347.824C157.117 307.865 148.841 261.959 113.669 228.664C86.4863 202.932 50.9691 200.152 23.809 212.885C-8.75482 228.297 -17.6858 253.254 -48.1047 272.997C-73.1146 289.122 -116.982 286.45 -149.938 302.68Z" stroke="#020403" stroke-width="0.8" stroke-miterlimit="10"/>
<path d="M-134.424 312.538C-218.038 352.364 -169.244 440.39 -159.086 502.822C-152.033 546.158 -124.686 563.461 -117.964 606.431C-117.254 610.974 -116.613 615.541 -116.253 620.162C-111.852 676.567 -115.028 720.385 -88.1042 755.746C-73.4182 775.034 -49.3546 794.55 -20.9994 806.8C9.67551 819.989 36.2071 823.101 60.4631 818.546C101.43 810.855 156.259 854.443 190.189 874.009C241.375 903.522 307.947 904.793 356.422 861.473C401.095 821.555 419.626 745.709 397.945 700.168C387.554 678.343 356.994 662.836 354.369 630.101C352.275 603.979 370.55 585.478 377.723 563.397C385.164 540.495 385.422 509.972 368.75 493.432C352.59 477.401 336.313 475.652 317.796 465.46C300.354 455.86 283.573 440.583 265.76 428.635C239.737 411.177 216.569 389.928 199.626 365.903C172.789 327.847 160.778 285.463 124.998 254.258C98.1288 230.826 64.1069 226.748 37.5329 236.788C5.63991 248.837 -4.93639 269.373 -35.1276 286.05C-59.9626 299.66 -101.92 297.056 -134.424 312.538Z" stroke="#020403" stroke-width="0.8" stroke-miterlimit="10"/>
<path d="M-118.912 322.392C-206.726 362.844 -151.373 453.109 -143.702 517.77C-138.669 560.204 -116.996 579.251 -112.337 621.46C-111.847 625.916 -111.389 630.4 -111.178 634.935C-108.545 691.07 -108.208 732.809 -79.0639 765.334C-62.932 783.335 -38.0086 801.368 -10.01 813.913C20.2218 827.395 45.9766 833.701 70.5663 831.118C110.509 826.924 162.443 867.64 195.956 885.636C246.172 912.6 309.916 912.461 357.051 871.331C400.726 833.221 420.353 761.879 403.796 716.984C395.735 695.125 369.795 678.771 368.068 647.024C366.705 621.942 383.254 603.614 389.629 582.114C396.411 559.246 396.261 529.783 380.849 512.931C365.877 496.559 350.499 493.062 332.899 482.212C316.251 471.95 299.989 456.772 282.6 444.732C257.371 427.264 234.335 406.711 216.623 383.977C188.459 347.826 172.766 308.926 136.328 279.849C109.812 258.691 77.2694 253.393 51.2585 260.686C20.0699 269.43 7.81833 285.486 -22.1487 299.099C-46.8125 310.194 -86.8703 307.632 -118.912 322.392Z" stroke="#020403" stroke-width="0.8" stroke-miterlimit="10"/>
<path d="M-103.4 332.25C-195.444 373.245 -133.333 465.823 -128.319 532.721C-125.207 574.248 -109.312 595.045 -106.715 636.491C-106.441 640.858 -106.171 645.261 -106.104 649.706C-105.271 705.574 -101.354 745.194 -70.0237 774.923C-52.4283 791.62 -26.6611 808.19 0.980895 821.027C30.7696 834.801 56.0178 839.846 80.671 843.693C119.147 849.697 168.623 880.841 201.725 897.264C250.965 921.693 311.887 920.129 357.682 881.189C400.365 844.891 421.152 778.002 409.648 733.801C403.945 711.891 382.586 694.71 381.765 663.953C381.125 639.915 395.938 621.75 401.532 600.836C407.64 577.999 407.098 549.601 392.947 532.437C379.163 515.722 364.687 510.472 348.003 498.969C332.152 488.04 316.405 472.969 299.438 460.836C275 443.36 252.096 423.503 233.618 402.056C204.119 367.817 184.803 332.349 147.658 305.443C121.532 286.52 90.4352 280.043 64.9858 284.589C34.4998 290.032 20.5711 301.607 -9.16817 312.152C-33.6625 320.73 -71.8278 318.189 -103.4 332.25Z" stroke="#020403" stroke-width="0.8" stroke-miterlimit="10"/>
<path d="M-87.8856 342.106C-184.193 383.559 -115.111 478.547 -112.933 547.67C-111.651 588.303 -101.613 610.835 -101.087 651.519C-101.032 655.8 -100.948 660.118 -101.025 664.48C-102.016 720.08 -94.4687 757.538 -60.9815 784.511C-41.9033 799.876 -15.3135 815.007 11.9719 828.141C41.3175 842.206 66.1632 850.152 90.7759 856.267C127.695 865.438 174.8 894.049 207.494 908.891C255.751 930.794 313.866 927.805 358.314 891.046C400.005 856.569 422.033 794.097 415.501 750.616C412.2 728.639 395.375 710.648 395.466 680.875C395.539 657.881 408.611 639.876 413.44 619.554C418.857 596.738 417.945 569.409 405.049 551.935C392.458 534.876 378.881 527.875 363.107 515.72C348.058 504.122 332.819 489.161 316.279 476.932C292.632 459.453 269.856 440.294 250.617 420.128C219.778 387.806 196.885 355.708 158.989 331.032C133.293 314.3 103.603 306.689 78.7131 308.485C48.9333 310.631 33.3275 317.718 3.81421 325.199C-20.5125 331.265 -56.7941 328.725 -87.8856 342.106Z" stroke="#020403" stroke-width="0.8" stroke-miterlimit="10"/>
<path d="M-72.3731 351.962C-172.977 393.778 -96.7033 491.307 -97.5489 562.619C-98.0203 602.382 -93.9123 626.627 -95.4622 666.549C-95.6247 670.742 -95.7306 674.977 -95.9495 679.251C-98.7829 734.581 -87.5711 769.832 -51.9408 794.1C-31.3726 808.11 -3.96541 821.829 22.9616 835.256C51.8641 849.614 76.3602 860.375 100.879 868.838C136.319 881.072 180.97 907.27 213.262 920.517C260.526 939.91 315.844 935.481 358.941 900.903C399.647 868.245 423.001 810.193 421.35 767.431C420.499 745.387 408.142 726.586 409.162 697.8C409.941 675.847 421.266 658.003 425.342 638.27C430.052 615.479 428.784 589.214 417.145 571.435C405.75 554.032 393.073 545.28 378.208 532.475C363.962 520.203 349.228 505.358 333.116 493.034C310.258 475.551 287.608 457.091 267.609 438.205C235.424 407.809 209.011 378.992 170.314 356.626C145.072 342.036 116.766 333.346 92.4356 332.388C63.3584 331.24 46.0773 333.837 16.7899 338.252C-7.36195 341.799 -41.7635 339.241 -72.3731 351.962Z" stroke="#020403" stroke-width="0.8" stroke-miterlimit="10"/>
<path d="M-56.8594 361.82C-161.792 403.899 -78.1002 504.122 -82.164 577.57C-84.3178 616.503 -86.2138 642.42 -89.8363 681.579C-90.2158 685.686 -90.5159 689.836 -90.8743 694.025C-95.5878 749.076 -80.6723 782.081 -42.9007 803.689C-20.839 816.31 7.38034 828.648 33.9525 842.368C62.4101 857.019 86.6256 870.528 110.984 881.413C145.045 896.634 187.142 920.5 219.033 932.144C265.305 949.04 317.831 943.163 359.575 910.76C399.296 879.928 424.067 826.321 427.204 784.246C428.851 762.149 420.904 742.52 422.863 714.722C424.337 693.811 433.907 676.124 437.249 656.988C441.226 634.216 439.634 609.019 429.245 590.935C419.046 573.181 407.273 562.673 393.314 549.225C379.877 536.278 365.641 521.553 349.955 509.13C327.885 491.65 305.361 473.894 284.605 456.279C251.069 427.818 221.178 402.178 181.648 382.215C156.88 369.707 129.926 360.045 106.166 356.284C77.7829 351.9 58.8353 349.948 29.7739 351.298C5.78974 352.334 -26.737 349.739 -56.8594 361.82Z" stroke="#020403" stroke-width="0.8" stroke-miterlimit="10"/>
<path d="M-41.3469 371.676C-150.639 413.912 -59.3023 517.011 -66.7804 592.519C-70.5583 630.665 -78.4423 658.226 -84.2115 696.61C-84.8029 700.628 -85.3025 704.695 -85.8004 708.798C-92.4346 763.558 -73.7836 794.284 -33.8617 813.279C-10.3101 824.485 18.7266 835.468 44.9404 849.483C72.9549 864.427 96.9726 880.631 121.084 893.988C153.877 912.155 193.305 933.745 224.797 943.774C270.073 958.195 319.812 950.853 360.2 920.62C398.941 891.619 425.201 842.515 433.051 801.063C437.239 778.95 433.641 758.452 436.555 731.649C438.716 711.78 446.523 694.251 449.15 675.708C452.371 652.956 450.479 628.827 441.338 610.436C432.342 592.335 421.47 580.071 408.412 565.978C395.786 552.353 382.045 537.754 366.788 525.229C345.5 507.753 323.105 490.702 301.595 474.355C266.705 447.837 233.364 425.248 192.971 407.808C168.685 397.323 143.08 386.696 119.887 380.183C92.2009 372.5 71.5833 366.064 42.7479 364.348C18.9402 362.87 -11.7118 360.222 -41.3469 371.676Z" stroke="#020403" stroke-width="0.8" stroke-miterlimit="10"/>
<path d="M-25.8326 381.532C-139.515 423.811 -40.3103 529.993 -51.3932 607.47C-56.7458 644.887 -70.7469 674.022 -78.5833 711.638C-79.3919 715.572 -80.0874 719.551 -80.7212 723.572C-89.2885 778.032 -66.9108 806.451 -24.8193 822.87C0.213518 832.634 30.0746 842.289 55.9318 856.597C83.505 871.834 107.408 890.702 131.191 906.562C162.837 927.664 199.475 947.002 230.568 955.403C274.845 967.365 321.857 958.619 360.834 930.478C398.65 903.383 426.384 858.793 438.904 817.881C445.663 795.788 446.371 774.383 450.258 748.575C453.095 729.74 459.129 712.383 461.057 694.43C463.497 671.699 461.377 648.62 453.441 629.939C445.684 611.475 435.684 597.471 423.519 582.737C411.708 568.432 398.454 553.96 383.63 541.334C363.12 523.864 340.856 507.522 318.593 492.437C282.348 467.874 245.567 448.188 204.303 433.404C180.499 424.875 156.241 413.351 133.615 404.088C106.626 393.107 84.3382 382.187 55.7305 377.405C32.0906 373.404 3.31348 370.693 -25.8326 381.532Z" stroke="#020403" stroke-width="0.8" stroke-miterlimit="10"/>
<path d="M-10.3204 391.388C-128.425 433.59 -21.135 543.087 -36.0099 622.419C-42.9019 659.172 -63.0569 689.818 -72.9589 726.667C-73.9863 730.513 -74.8796 734.406 -75.6457 738.341C-86.1849 792.479 -60.0647 818.578 -15.7788 832.458C10.7227 840.762 41.4224 849.109 66.923 863.708C94.0513 879.238 117.924 900.765 141.296 919.133C171.904 943.19 205.641 960.271 236.337 967.028C279.621 976.553 323.83 966.288 361.464 940.332C398.284 915.054 427.582 875.155 444.756 834.693C454.102 812.67 459.084 790.301 463.958 765.496C467.455 747.692 471.716 730.515 472.963 713.144C474.59 690.441 472.218 668.433 465.541 649.437C458.976 630.633 449.923 614.842 438.623 599.487C427.658 584.483 414.842 570.176 400.47 557.429C380.717 539.992 358.583 524.374 335.59 510.507C297.956 487.965 257.758 470.968 215.635 458.992C192.285 452.354 169.402 439.995 147.342 427.984C121.049 413.704 97.0929 398.297 68.7112 390.45C45.2426 383.94 18.3403 381.147 -10.3204 391.388Z" stroke="#020403" stroke-width="0.8" stroke-miterlimit="10"/>
<path d="M417.304 573.529C367.271 527.483 296.109 499.092 226.96 484.585C154.135 469.305 96.0265 370.122 5.19347 401.245C-117.36 443.243 -1.80266 556.308 -20.6249 637.369C-29.9089 677.297 -61.0481 712.261 -70.5705 753.115C-83.101 806.916 -53.2435 830.675 -6.73861 842.047C21.2194 848.867 52.7681 855.926 77.9121 870.824C104.597 886.645 128.506 910.847 151.399 931.708C301.461 1068.58 479.351 891.74 484.863 731.864C487.183 664.743 459.903 612.737 417.304 573.529Z" stroke="#020403" stroke-width="0.8" stroke-miterlimit="10"/>
</svg>