<svg width="484" height="460" viewBox="0 0 484 460" fill="none" xmlns="http://www.w3.org/2000/svg">
<path d="M226.132 317.928C252.955 304.887 277.344 318.786 304.128 314.679C328.714 310.903 350.207 294.946 371.782 283.74C405.011 266.489 429.505 238.894 439.322 203.22C454.512 148.063 431.325 73.6848 462.962 23.9299C491.369 -20.739 540.303 -13.0402 571.996 21.6879C610.135 63.4934 605.713 124.326 637.94 168.594C664.319 204.84 724.384 200.161 760.044 223.829C807.522 255.321 811.43 323.157 783.548 368.272C753.334 417.176 679.817 421.27 654.596 471.166C622.297 535.046 661.068 602.929 655.47 669.441C652.876 700.271 637.479 733.174 605.912 742.776C571.248 753.329 542.831 722.949 516.474 705.382C463.203 669.884 385.606 735.861 347.727 769.36C288.118 822.079 195.682 835.875 135.252 772.755C81.5264 716.609 72.2635 598.191 140.714 548.826C171.839 526.364 244.467 519.516 254.915 477.779C263.798 442.363 230.284 421.923 215.417 394.927C202.469 371.437 198.077 331.569 226.132 317.928Z" stroke="#020403" stroke-width="0.8" stroke-miterlimit="10"/>
<path d="M744.53 233.687C795.853 266.282 794.265 336.558 768.163 383.225C740.937 431.901 672.125 437.07 648.969 486.198C646.498 491.433 644.469 496.692 642.861 501.984C624.996 560.778 654.091 620.844 646.427 679.032C642.542 708.544 626.131 739.995 594.921 749.892C560.699 760.738 532.381 733.645 506.369 717.96C454.098 686.443 379.415 749.069 341.957 780.992C283.31 831.178 193.709 843.551 134.619 782.616C81.8898 728.287 71.5889 614.706 134.861 565.647C163.667 543.311 231.675 535.448 241.214 494.709C249.373 460.329 217.489 440.129 203.511 413.651C191.157 390.247 187.236 351.387 214.034 337.43C239.667 324.05 263.152 336.203 289.025 331.434C312.811 326.998 333.793 311.138 354.943 299.842C387.382 282.58 411.737 255.69 422.329 221.299C438.84 168.061 419.654 97.2083 451.634 49.526C479.991 7.24207 527.145 13.6132 558.27 45.591C595.714 84.097 592.96 140.444 624.96 181.647C651.167 215.378 709.055 211.157 744.53 233.687Z" stroke="#020403" stroke-width="0.8" stroke-miterlimit="10"/>
<path d="M729.016 243.542C784.235 277.208 777.098 349.849 752.778 398.174C728.457 446.501 664.434 452.865 643.343 501.227C641.091 506.375 639.232 511.542 637.784 516.755C621.55 575.215 647.566 633.239 637.387 688.62C632.204 716.827 614.784 746.813 583.93 757.003C550.154 768.142 521.966 744.343 496.266 730.529C445.055 703.002 373.164 762.198 336.189 792.617C278.408 840.153 191.738 851.218 133.99 792.472C82.2539 739.958 70.9185 631.187 129.009 582.46C155.502 560.236 218.774 551.349 227.517 511.63C234.86 478.263 204.699 458.323 191.606 432.367C179.843 409.05 176.395 371.199 201.936 356.928C226.378 343.209 248.971 353.666 273.923 348.184C296.916 343.133 317.377 327.325 338.106 315.936C369.75 298.662 393.965 272.477 405.332 239.369C423.163 188.05 407.961 120.735 440.304 75.113C468.589 35.2141 513.985 40.2578 544.543 69.4886C581.289 104.695 580.205 156.558 611.98 194.695C638.017 225.914 693.794 222.067 729.016 243.542Z" stroke="#020403" stroke-width="0.8" stroke-miterlimit="10"/>
<path d="M713.504 253.398C772.665 288.096 759.91 363.034 737.395 413.123C715.881 460.985 656.743 468.661 637.719 516.255C635.686 521.316 633.998 526.399 632.711 531.527C618.122 589.668 641.024 645.654 628.349 698.209C621.857 725.12 603.438 753.632 572.943 764.117C539.608 775.549 511.586 755.053 486.163 743.106C436.076 719.563 366.95 775.367 330.421 804.245C273.563 849.193 189.768 858.892 133.361 802.33C82.6195 751.632 70.2637 647.654 123.161 599.276C147.343 577.162 205.942 567.27 213.819 528.556C220.401 496.218 191.92 476.513 179.702 451.087C168.536 427.849 165.556 391.017 189.839 376.43C213.087 362.372 234.785 371.102 258.818 364.939C281.018 359.247 300.963 343.515 321.266 332.038C352.118 314.755 376.111 289.24 388.337 257.448C407.356 207.995 396.243 144.274 428.972 100.707C457.156 63.1914 500.824 66.9092 530.816 93.3896C566.865 125.297 567.451 172.675 599 207.746C624.867 236.447 678.58 232.915 713.504 253.398Z" stroke="#020403" stroke-width="0.8" stroke-miterlimit="10"/>
<path d="M697.99 263.255C761.132 298.945 742.68 376.118 722.008 428.072C703.193 475.363 649.049 484.46 632.091 531.284C630.276 536.259 628.762 541.253 627.634 546.3C614.704 604.13 634.455 658.09 619.306 707.799C611.498 733.426 592.09 760.452 561.95 771.232C529.059 782.955 501.244 765.763 476.056 755.679C427.173 736.104 360.736 788.543 324.65 815.874C268.72 858.236 187.796 866.565 132.727 812.188C82.9795 763.307 69.614 664.097 117.307 616.094C139.187 594.071 193.104 583.193 200.118 545.481C205.942 514.174 179.146 494.693 167.794 469.805C157.231 446.64 154.711 410.832 177.737 395.93C199.793 381.534 220.598 388.535 243.714 381.694C265.119 375.358 284.517 359.657 304.426 348.138C334.443 330.771 358.317 306.022 371.34 275.526C391.647 227.972 384.494 167.819 417.642 126.3C445.696 91.162 487.662 93.5594 517.089 117.289C552.44 145.897 554.696 188.792 586.019 220.798C611.715 246.983 663.409 243.707 697.99 263.255Z" stroke="#020403" stroke-width="0.8" stroke-miterlimit="10"/>
<path d="M682.477 273.112C749.643 309.749 725.391 389.114 706.625 443.023C690.394 489.651 641.358 500.257 626.467 546.316C624.871 551.202 623.529 556.11 622.557 561.072C611.294 618.598 627.855 670.542 610.266 717.388C601.123 741.741 580.742 767.272 550.959 778.346C518.512 790.361 490.951 776.466 465.953 768.25C418.352 752.605 354.529 801.714 318.883 827.5C263.89 867.283 185.824 874.235 132.097 822.044C83.3452 774.977 68.9752 680.506 111.455 632.907C131.038 610.963 180.274 599.116 186.421 562.405C191.489 532.131 166.381 512.864 155.891 488.523C145.934 465.423 143.909 430.699 165.639 415.43C186.541 400.744 206.416 405.966 228.611 398.446C249.224 391.464 268.097 375.838 287.587 364.237C316.802 346.844 340.532 322.802 354.346 293.599C375.945 247.943 372.716 191.362 406.312 151.89C434.203 119.123 474.503 120.207 503.363 141.187C538.017 166.497 541.943 204.906 573.038 233.845C598.565 257.519 648.266 254.451 682.477 273.112Z" stroke="#020403" stroke-width="0.8" stroke-miterlimit="10"/>
<path d="M666.966 282.968C738.191 320.495 708.023 402.024 691.241 457.972C677.479 503.856 633.668 516.052 620.842 561.344C619.465 566.146 618.298 570.966 617.483 575.847C607.908 633.082 621.217 683.006 601.227 726.978C590.732 750.065 569.398 774.092 539.971 785.46C507.967 797.769 480.705 787.153 455.85 780.826C409.619 769.058 348.327 814.893 313.115 839.127C259.064 876.332 183.854 881.904 131.469 831.902C83.7086 786.649 68.3412 696.88 105.606 649.722C122.894 627.844 167.449 615.041 172.723 579.33C177.041 550.089 153.635 531.028 143.989 507.241C134.646 484.2 133.079 450.522 153.545 434.931C173.26 419.913 192.236 423.39 213.512 415.199C233.334 407.567 251.681 392.022 270.754 380.335C299.169 362.923 322.751 339.58 337.357 311.675C360.258 267.919 360.909 214.905 394.989 177.483C422.681 147.076 461.351 146.856 489.643 165.088C523.601 187.099 529.194 221.024 560.066 246.899C585.415 268.053 633.15 265.152 666.966 282.968Z" stroke="#020403" stroke-width="0.8" stroke-miterlimit="10"/>
<path d="M651.452 292.824C726.773 331.184 690.554 414.863 675.858 472.921C664.447 517.999 625.978 531.848 615.218 576.371C614.06 581.086 613.071 585.823 612.409 590.616C604.541 647.57 614.536 695.473 592.189 736.565C580.32 758.388 558.052 780.909 528.983 792.573C497.422 805.174 470.506 797.809 445.75 793.399C400.97 785.421 342.132 828.072 307.353 850.754C254.249 885.388 181.99 889.468 130.844 841.757C84.1728 798.224 67.7108 713.209 99.7627 666.537C114.758 644.701 154.637 630.972 159.033 596.252C162.602 568.051 140.899 549.184 132.09 525.959C123.373 502.971 122.25 470.342 141.452 454.43C159.981 439.077 178.058 440.814 198.415 431.952C217.44 423.669 235.266 408.206 253.919 396.433C281.535 379.002 304.979 356.359 320.366 329.75C344.57 287.89 349.058 238.439 383.666 203.073C411.123 175.013 448.197 173.503 475.924 188.987C509.185 207.698 516.448 237.138 547.092 259.948C572.265 278.588 618.058 275.818 651.452 292.824Z" stroke="#020403" stroke-width="0.8" stroke-miterlimit="10"/>
<path d="M635.938 302.68C715.388 341.808 672.968 427.647 660.471 487.87C651.295 532.094 618.38 547.665 609.59 591.403C608.66 596.032 607.84 600.682 607.328 605.39C601.176 662.065 607.803 707.938 583.143 746.156C569.878 766.716 546.699 787.73 517.989 799.685C486.871 812.58 460.341 808.419 435.64 805.97C392.387 801.682 335.933 841.253 301.579 862.379C249.428 894.448 180.02 897.128 130.206 851.614C84.5365 809.886 67.0542 729.486 93.9053 683.35C106.604 661.532 141.817 646.901 145.328 613.175C148.158 586.01 128.162 567.331 120.179 544.674C112.094 521.731 111.411 490.154 129.347 473.929C146.691 458.238 163.868 458.231 183.305 448.704C201.539 439.764 218.845 424.391 237.076 412.532C263.894 395.086 287.198 373.139 303.365 347.824C328.883 307.865 337.16 261.959 372.331 228.664C399.514 202.932 435.031 200.152 462.191 212.885C494.755 228.297 503.686 253.254 534.105 272.997C559.115 289.122 602.982 286.45 635.938 302.68Z" stroke="#020403" stroke-width="0.8" stroke-miterlimit="10"/>
<path d="M620.424 312.538C704.038 352.364 655.244 440.391 645.086 502.823C638.033 546.159 610.686 563.461 603.964 606.432C603.254 610.974 602.613 615.541 602.253 620.162C597.852 676.567 601.028 720.386 574.104 755.746C559.418 775.034 535.355 794.55 507 806.8C476.325 819.989 449.793 823.101 425.537 818.547C384.57 810.855 329.742 854.443 295.811 874.009C244.625 903.522 178.053 904.793 129.578 861.473C84.9057 821.555 66.3747 745.71 88.0551 700.169C98.446 678.343 129.006 662.837 131.631 630.101C133.725 603.979 115.45 585.478 108.277 563.397C100.836 540.495 100.579 509.972 117.251 493.433C133.411 477.401 149.687 475.652 168.204 465.46C185.646 455.86 202.427 440.583 220.24 428.635C246.263 411.177 269.432 389.928 286.374 365.903C313.211 327.847 325.222 285.463 361.003 254.258C387.871 230.827 421.893 226.748 448.467 236.788C480.36 248.837 490.937 269.373 521.128 286.05C545.963 299.66 587.92 297.056 620.424 312.538Z" stroke="#020403" stroke-width="0.8" stroke-miterlimit="10"/>
<path d="M604.912 322.392C692.726 362.844 637.373 453.109 629.703 517.77C624.67 560.204 602.996 579.251 598.337 621.46C597.847 625.916 597.389 630.4 597.178 634.935C594.545 691.07 594.208 732.809 565.064 765.334C548.932 783.335 524.009 801.368 496.01 813.913C465.778 827.395 440.024 833.701 415.434 831.118C375.491 826.924 323.557 867.64 290.044 885.636C239.828 912.6 176.085 912.461 128.949 871.331C85.2745 833.221 65.6472 761.879 82.2045 716.984C90.2651 695.125 116.205 678.771 117.932 647.024C119.295 621.942 102.746 603.614 96.3715 582.114C89.589 559.246 89.739 529.783 105.151 512.931C120.123 496.559 135.501 493.062 153.101 482.212C169.749 471.95 186.011 456.772 203.4 444.732C228.629 427.264 251.665 406.711 269.377 383.977C297.541 347.826 313.234 308.926 349.672 279.849C376.188 258.691 408.731 253.393 434.742 260.686C465.93 269.43 478.182 285.486 508.149 299.099C532.813 310.194 572.87 307.632 604.912 322.392Z" stroke="#020403" stroke-width="0.8" stroke-miterlimit="10"/>
<path d="M589.4 332.25C681.444 373.245 619.333 465.823 614.32 532.721C611.207 574.248 595.312 595.045 592.715 636.491C592.442 640.858 592.171 645.261 592.104 649.706C591.271 705.574 587.354 745.194 556.024 774.923C538.429 791.62 512.661 808.19 485.019 821.027C455.231 834.801 429.982 839.846 405.329 843.693C366.853 849.697 317.377 880.841 284.275 897.264C235.036 921.693 174.113 920.129 128.318 881.189C85.635 844.891 64.8478 778.002 76.3527 733.801C82.0548 711.891 103.414 694.71 104.235 663.953C104.876 639.915 90.0625 621.75 84.468 600.836C78.3599 577.999 78.9019 549.601 93.053 532.437C106.837 515.722 121.313 510.472 137.997 498.969C153.848 488.04 169.595 472.969 186.562 460.836C211 443.36 233.904 423.503 252.382 402.056C281.881 367.817 301.198 332.349 338.343 305.443C364.468 286.52 395.565 280.043 421.014 284.589C451.5 290.032 465.429 301.607 495.168 312.152C519.663 320.73 557.828 318.189 589.4 332.25Z" stroke="#020403" stroke-width="0.8" stroke-miterlimit="10"/>
<path d="M573.885 342.106C670.193 383.559 601.111 478.547 598.932 547.67C597.651 588.303 587.613 610.835 587.087 651.519C587.032 655.8 586.947 660.118 587.025 664.48C588.015 720.08 580.468 757.538 546.981 784.511C527.903 799.876 501.313 815.007 474.028 828.141C444.682 842.206 419.837 850.152 395.224 856.267C358.305 865.438 311.2 894.049 278.505 908.891C230.249 930.794 172.134 927.805 127.685 891.046C85.9947 856.569 63.9665 794.097 70.4983 750.616C73.7995 728.639 90.6252 710.648 90.5334 680.875C90.461 657.881 77.3885 639.876 72.5603 619.554C67.1424 596.738 68.055 569.409 80.951 551.935C93.5415 534.876 107.119 527.875 122.892 515.72C137.942 504.122 153.181 489.161 169.72 476.932C193.367 459.453 216.144 440.294 235.383 420.128C266.222 387.806 289.115 355.708 327.01 331.032C352.707 314.3 382.397 306.689 407.287 308.485C437.066 310.631 452.672 317.718 482.186 325.199C506.512 331.265 542.794 328.725 573.885 342.106Z" stroke="#020403" stroke-width="0.8" stroke-miterlimit="10"/>
<path d="M558.373 351.962C658.977 393.778 582.703 491.307 583.549 562.619C584.02 602.382 579.912 626.627 581.462 666.549C581.625 670.742 581.731 674.977 581.949 679.251C584.783 734.581 573.571 769.832 537.941 794.1C517.373 808.11 489.965 821.829 463.038 835.256C434.136 849.614 409.64 860.375 385.121 868.838C349.681 881.072 305.03 907.27 272.738 920.517C225.474 939.91 170.156 935.481 127.059 900.903C86.3529 868.245 62.999 810.193 64.6496 767.431C65.5005 745.387 77.858 726.586 76.8376 697.8C76.0591 675.847 64.7343 658.003 60.6581 638.27C55.9481 615.479 57.2157 589.214 68.8547 571.435C80.2501 554.032 92.9271 545.28 107.791 532.475C122.038 520.203 136.772 505.358 152.884 493.034C175.742 475.551 198.391 457.091 218.391 438.205C250.575 407.809 276.989 378.992 315.686 356.626C340.928 342.036 369.234 333.346 393.564 332.388C422.642 331.24 439.923 333.837 469.21 338.252C493.362 341.799 527.763 339.241 558.373 351.962Z" stroke="#020403" stroke-width="0.8" stroke-miterlimit="10"/>
<path d="M542.859 361.82C647.792 403.899 564.1 504.122 568.164 577.57C570.318 616.503 572.214 642.42 575.836 681.579C576.216 685.686 576.516 689.836 576.874 694.025C581.588 749.076 566.672 782.081 528.901 803.689C506.839 816.31 478.62 828.648 452.047 842.368C423.59 857.019 399.374 870.528 375.016 881.413C340.955 896.634 298.858 920.5 266.967 932.144C220.695 949.04 168.169 943.163 126.425 910.76C86.7044 879.928 61.9328 826.321 58.7958 784.246C57.1487 762.149 65.0963 742.52 63.1368 714.722C61.6627 693.811 52.0927 676.124 48.7509 656.988C44.7735 634.216 46.3659 609.019 56.755 590.935C66.9535 573.181 78.7267 562.673 92.6854 549.225C106.123 536.278 120.359 521.553 136.044 509.13C158.115 491.65 180.639 473.894 201.394 456.279C234.931 427.818 264.822 402.178 304.352 382.215C329.12 369.707 356.074 360.045 379.834 356.284C408.217 351.9 427.165 349.948 456.226 351.298C480.21 352.334 512.737 349.739 542.859 361.82Z" stroke="#020403" stroke-width="0.8" stroke-miterlimit="10"/>
<path d="M527.347 371.676C636.639 413.912 545.302 517.011 552.781 592.519C556.558 630.665 564.442 658.226 570.212 696.61C570.803 700.628 571.303 704.695 571.8 708.798C578.435 763.558 559.784 794.284 519.862 813.279C496.31 824.485 467.274 835.468 441.06 849.483C413.045 864.427 389.027 880.631 364.916 893.988C332.123 912.155 292.695 933.745 261.203 943.774C215.927 958.195 166.188 950.853 125.8 920.62C87.0592 891.619 60.7994 842.515 52.9489 801.063C48.7614 778.95 52.3593 758.452 49.4447 731.649C47.2839 711.78 39.4774 694.251 36.8506 675.708C33.6288 652.956 35.5212 628.827 44.6623 610.436C53.6585 592.335 64.5296 580.071 77.588 565.978C90.2139 552.353 103.955 537.754 119.212 525.229C140.5 507.753 162.895 490.702 184.405 474.355C219.295 447.837 252.636 425.248 293.029 407.808C317.315 397.323 342.92 386.696 366.113 380.183C393.799 372.5 414.417 366.064 443.252 364.348C467.06 362.87 497.712 360.222 527.347 371.676Z" stroke="#020403" stroke-width="0.8" stroke-miterlimit="10"/>
<path d="M511.833 381.532C625.515 423.811 526.31 529.993 537.393 607.47C542.746 644.887 556.747 674.022 564.584 711.638C565.392 715.572 566.088 719.551 566.721 723.572C575.289 778.032 552.911 806.451 510.819 822.87C485.787 832.634 455.926 842.289 430.068 856.597C402.495 871.834 378.592 890.702 354.809 906.562C323.163 927.664 286.525 947.002 255.432 955.403C211.155 967.365 164.143 958.619 125.166 930.478C87.3503 903.383 59.6164 858.793 47.0965 817.881C40.337 795.788 39.6291 774.383 35.7418 748.575C32.9048 729.74 26.8708 712.383 24.943 694.43C22.5033 671.699 24.6235 648.62 32.5588 629.939C40.3158 611.475 50.3166 597.471 62.4817 582.737C74.2919 568.432 87.5463 553.96 102.37 541.334C122.88 523.864 145.145 507.522 167.408 492.437C203.652 467.874 240.433 448.188 281.697 433.404C305.501 424.875 329.759 413.351 352.385 404.088C379.374 393.107 401.662 382.187 430.27 377.405C453.91 373.404 482.687 370.693 511.833 381.532Z" stroke="#020403" stroke-width="0.8" stroke-miterlimit="10"/>
<path d="M496.32 391.388C614.424 433.59 507.135 543.087 522.01 622.419C528.902 659.172 549.057 689.818 558.959 726.667C559.986 730.513 560.879 734.406 561.645 738.341C572.185 792.479 546.064 818.578 501.779 832.458C475.277 840.762 444.577 849.109 419.077 863.708C391.948 879.238 368.076 900.765 344.704 919.133C314.096 943.19 280.358 960.271 249.662 967.028C206.379 976.553 162.169 966.288 124.535 940.332C87.7153 915.054 58.4174 875.155 41.2439 834.693C31.8981 812.67 26.9162 790.301 22.0421 765.496C18.5449 747.692 14.2833 730.515 13.037 713.144C11.4093 690.441 13.782 668.433 20.4586 649.437C27.0239 630.633 36.0767 614.842 47.3768 599.487C58.3414 584.483 71.158 570.176 85.5297 557.429C105.282 539.992 127.416 524.374 150.41 510.507C188.044 487.965 228.241 470.968 270.365 458.992C293.715 452.354 316.598 439.995 338.658 427.984C364.951 413.704 388.907 398.297 417.289 390.45C440.757 383.94 467.66 381.147 496.32 391.388Z" stroke="#020403" stroke-width="0.8" stroke-miterlimit="10"/>
<path d="M68.6957 573.529C118.73 527.483 189.891 499.092 259.04 484.585C331.865 469.305 389.974 370.122 480.807 401.245C603.36 443.243 487.803 556.308 506.625 637.369C515.909 677.297 547.048 712.261 556.571 753.115C569.101 806.916 539.244 830.675 492.739 842.047C464.781 848.867 433.232 855.926 408.088 870.824C381.403 886.645 357.494 910.847 334.601 931.708C184.539 1068.58 6.64856 891.74 1.13711 731.864C-1.18257 664.743 26.0976 612.737 68.6957 573.529Z" stroke="#020403" stroke-width="0.8" stroke-miterlimit="10"/>
</svg>