<svg width="114" height="160" viewBox="0 0 114 160" fill="none" xmlns="http://www.w3.org/2000/svg">
<path d="M-102.575 79.3916C-92.5168 74.5292 -83.3711 79.7115 -73.3271 78.1804C-64.1073 76.7725 -56.0473 70.8228 -47.9569 66.6443C-35.4959 60.2122 -26.3105 49.9234 -22.629 36.622C-16.9331 16.0563 -25.628 -11.6761 -13.7641 -30.2276C-3.11167 -46.8827 15.2386 -44.0122 27.1236 -31.0635C41.4257 -15.476 39.7674 7.2058 51.8524 23.7115C61.7448 37.2262 84.269 35.4813 97.6416 44.3061C115.446 56.0482 116.911 81.3412 106.456 98.1629C95.1253 116.397 67.5566 117.924 58.0984 136.528C45.9863 160.346 60.5254 185.656 58.4261 210.456C57.4536 221.951 51.6796 234.219 39.8422 237.799C26.843 241.734 16.1866 230.407 6.30278 223.857C-13.674 210.621 -42.7727 235.221 -56.9774 247.711C-79.3309 267.368 -113.994 272.512 -136.656 248.977C-156.803 228.043 -160.276 183.89 -134.607 165.484C-122.935 157.108 -95.6997 154.555 -91.7819 138.993C-88.4507 125.788 -101.018 118.167 -106.594 108.101C-111.449 99.3431 -113.096 84.4777 -102.575 79.3916Z" stroke="#020403" stroke-width="0.8" stroke-miterlimit="10"/>
<path d="M91.8237 47.9817C111.07 60.1352 110.475 86.3379 100.686 103.738C90.4765 121.887 64.6721 123.815 55.9885 142.132C55.0617 144.084 54.301 146.045 53.6979 148.018C46.9984 169.94 57.909 192.336 55.0352 214.032C53.5781 225.035 47.4241 236.762 35.7204 240.452C22.8873 244.497 12.268 234.395 2.51332 228.546C-17.0881 216.795 -45.0945 240.146 -59.141 252.048C-81.1336 270.761 -114.734 275.374 -136.893 252.654C-156.666 232.397 -160.529 190.047 -136.802 171.755C-126 163.427 -100.497 160.496 -96.9199 145.306C-93.8601 132.487 -105.817 124.955 -111.058 115.083C-115.691 106.357 -117.162 91.867 -107.112 86.663C-97.4998 81.6743 -88.6931 86.2056 -78.9907 84.4277C-70.0708 82.7736 -62.2028 76.8601 -54.2712 72.6481C-42.1068 66.2119 -32.9737 56.1858 -29.0017 43.3629C-22.8099 23.5127 -30.0046 -2.90519 -18.0123 -20.6839C-7.37843 -36.4498 10.3045 -34.0742 21.9764 -22.1511C36.0176 -7.79385 34.9849 13.2154 46.9851 28.5784C56.8127 41.1552 78.5207 39.5814 91.8237 47.9817Z" stroke="#020403" stroke-width="0.8" stroke-miterlimit="10"/>
<path d="M86.0062 51.6566C106.713 64.2089 104.037 91.2937 94.9168 109.312C85.7963 127.331 61.7879 129.704 53.8788 147.736C53.0341 149.655 52.337 151.582 51.7941 153.526C45.7063 175.323 55.4623 196.958 51.6452 217.607C49.7015 228.124 43.1688 239.305 31.5989 243.104C18.9326 247.257 8.36234 238.384 -1.2752 233.233C-20.4794 222.969 -47.4385 245.041 -61.3043 256.383C-82.9718 274.107 -115.473 278.233 -137.129 256.329C-156.53 236.749 -160.781 196.193 -138.996 178.024C-129.062 169.738 -105.335 166.424 -102.056 151.615C-99.3023 139.174 -110.613 131.739 -115.523 122.061C-119.934 113.367 -121.227 99.2543 -111.649 93.9332C-102.483 88.8181 -94.0109 92.7168 -84.654 90.673C-76.0313 88.7898 -68.3586 82.8953 -60.5853 78.6491C-48.7188 72.2084 -39.638 62.4449 -35.3753 50.1005C-28.689 30.9659 -34.3896 5.867 -22.2609 -11.1436C-11.6542 -26.0201 5.36939 -24.1396 16.8288 -13.2407C30.6085 -0.11364 30.202 19.2237 42.1175 33.4434C51.8815 45.0835 72.7977 43.6492 86.0062 51.6566Z" stroke="#020403" stroke-width="0.8" stroke-miterlimit="10"/>
<path d="M80.1891 55.3313C102.374 68.2688 97.5914 96.2098 89.1481 114.886C81.0802 132.732 58.9035 135.594 51.7697 153.339C51.0071 155.226 50.3742 157.122 49.8916 159.034C44.4207 180.712 53.009 201.587 48.2558 221.182C45.8216 231.216 38.9142 241.847 27.4786 245.756C14.9779 250.019 4.46979 242.377 -5.06381 237.922C-23.8464 229.144 -49.7687 249.951 -63.467 260.719C-84.789 277.478 -116.212 281.094 -137.364 260.004C-156.393 241.101 -161.026 202.332 -141.19 184.294C-132.121 176.049 -110.147 172.361 -107.193 157.926C-104.725 145.868 -115.405 138.521 -119.987 129.041C-124.174 120.377 -125.291 106.643 -116.185 101.204C-107.467 95.963 -99.3307 99.2179 -90.3181 96.9201C-81.9933 94.7979 -74.5139 88.9318 -66.9002 84.6527C-55.3309 78.2087 -46.3335 68.6953 -41.7484 56.8413C-34.6166 38.4024 -38.784 14.6437 -26.5103 -1.6007C-15.9413 -15.5887 0.434171 -14.2024 11.6811 -4.32904C25.1993 7.56775 25.4191 25.2332 37.2499 38.3096C46.9503 49.011 67.0926 47.6939 80.1891 55.3313Z" stroke="#020403" stroke-width="0.8" stroke-miterlimit="10"/>
<path d="M74.3713 59.0063C98.0494 72.3137 91.1301 101.088 83.378 120.46C76.3223 138.092 56.0184 141.484 49.6592 158.943C48.9786 160.798 48.4106 162.66 47.9876 164.542C43.139 186.104 50.5456 206.223 44.8649 224.758C41.9368 234.313 34.6587 244.39 23.3562 248.409C11.0223 252.78 0.591668 246.37 -8.85389 242.61C-27.1849 235.312 -52.099 254.864 -65.6312 265.054C-86.605 280.849 -116.951 283.955 -137.602 263.68C-156.258 245.454 -161.27 208.463 -143.385 190.565C-135.18 182.353 -114.961 178.297 -112.331 164.236C-110.147 152.563 -120.195 145.3 -124.452 136.02C-128.414 127.383 -129.358 114.031 -120.724 108.475C-112.452 103.108 -104.651 105.718 -95.9823 103.167C-87.9555 100.805 -80.6813 94.9508 -73.2151 90.6558C-61.959 84.1802 -53.006 74.9525 -48.1223 63.5817C-40.5072 45.851 -43.1897 23.4226 -30.7591 7.94174C-20.2391 -5.1596 -4.50184 -4.26573 6.5332 4.58215C19.7899 15.2487 20.636 31.2423 32.382 43.176C42.0183 52.9394 61.4032 51.7178 74.3713 59.0063Z" stroke="#020403" stroke-width="0.8" stroke-miterlimit="10"/>
<path d="M68.5537 62.6818C93.7412 76.342 84.6465 105.934 77.6093 126.034C71.5228 143.42 53.1342 147.375 47.5501 164.548C46.9517 166.37 46.4485 168.2 46.0838 170.05C41.8601 191.499 48.0705 210.866 41.4749 228.333C38.0463 237.413 30.4034 246.933 19.2346 251.062C7.0669 255.542 -3.2684 250.361 -12.6425 247.297C-30.4929 241.464 -54.4265 259.775 -67.7938 269.389C-88.4161 284.223 -117.691 286.815 -137.838 267.355C-156.12 249.806 -161.509 214.581 -145.579 196.834C-138.236 188.652 -119.772 184.235 -117.467 170.547C-115.566 159.259 -124.982 152.075 -128.916 142.999C-132.65 134.386 -133.409 121.439 -125.26 115.746C-117.422 110.27 -109.969 112.217 -101.646 109.413C-93.9161 106.81 -86.8385 100.984 -79.5299 96.6582C-68.5743 90.1733 -59.6756 81.2089 -54.4954 70.3205C-46.3957 53.2975 -47.6065 32.2006 -35.0078 17.4833C-24.5487 5.26597 -9.43634 5.67012 1.38619 13.4925C14.3814 22.9295 15.8538 37.2505 27.5144 48.0408C37.0871 56.8677 55.7246 55.7237 68.5537 62.6818Z" stroke="#020403" stroke-width="0.8" stroke-miterlimit="10"/>
<path d="M62.7372 66.3568C89.4466 80.3487 78.1336 110.748 71.8405 131.608C66.6795 148.716 50.2504 153.264 45.4409 170.151C44.9245 171.942 44.4869 173.739 44.1811 175.559C40.5903 196.899 45.5812 215.514 38.0853 231.909C34.1496 240.517 26.1492 249.476 15.1142 253.715C3.11263 258.304 -7.11078 254.346 -16.4312 251.987C-33.7679 247.599 -56.7522 264.688 -69.9567 273.725C-90.2261 287.597 -118.43 289.674 -138.074 271.031C-155.984 254.158 -161.747 220.687 -147.773 203.103C-141.29 194.946 -124.582 190.173 -122.604 176.857C-120.984 165.954 -129.762 158.848 -133.379 149.979C-136.883 141.387 -137.47 128.83 -129.796 123.017C-122.402 117.417 -115.286 118.714 -107.308 115.66C-99.8749 112.814 -92.9946 107.018 -85.8423 102.661C-75.1866 96.1685 -66.3434 87.4648 -60.866 77.0602C-52.2784 60.7454 -52.0341 40.9788 -39.254 27.0257C-28.8697 15.6884 -14.3684 15.6062 -3.75903 22.4043C8.97539 30.6111 11.0726 43.2603 22.6499 52.9079C32.1557 60.7954 50.0564 59.714 62.7372 66.3568Z" stroke="#020403" stroke-width="0.8" stroke-miterlimit="10"/>
<path d="M56.9194 70.0315C85.1647 84.3341 71.5829 115.535 66.0717 137.182C61.7925 153.99 47.3666 159.153 43.3316 175.754C42.8974 177.512 42.5266 179.278 42.2784 181.065C39.3278 202.301 43.0761 220.162 34.6957 235.483C30.245 243.62 21.8944 252.017 10.9938 256.366C-0.841615 261.065 -10.9353 258.319 -20.2186 256.674C-37.0112 253.7 -59.0753 269.603 -72.1176 278.06C-92.0315 290.973 -119.129 292.494 -138.309 274.705C-155.81 258.473 -161.983 226.775 -149.964 209.373C-144.341 201.231 -129.386 196.112 -127.738 183.167C-126.399 172.652 -134.538 165.617 -137.841 156.958C-141.11 148.386 -141.531 136.22 -134.331 130.288C-127.382 124.563 -120.603 125.211 -112.97 121.906C-105.835 118.818 -99.1501 113.053 -92.1553 108.663C-81.7995 102.164 -73.008 93.7211 -67.2379 83.7997C-58.1611 68.1918 -56.4782 49.7535 -43.5002 36.5673C-33.204 26.1048 -19.3011 25.542 -8.90357 31.3153C3.56936 38.2918 6.29286 49.2684 17.7847 57.7734C27.2243 64.7236 44.3968 63.6908 56.9194 70.0315Z" stroke="#020403" stroke-width="0.8" stroke-miterlimit="10"/>
<path d="M51.1017 73.7065C80.8954 88.2954 64.988 120.301 60.3016 142.756C56.8605 159.245 44.5173 165.051 41.2212 181.359C40.8723 183.085 40.5651 184.819 40.3732 186.574C38.0661 207.706 40.5512 224.81 31.3036 239.06C26.3293 246.725 17.6371 254.561 6.87083 259.018C-4.79842 263.826 -14.7471 262.275 -24.0099 261.362C-40.2299 259.763 -61.4003 274.517 -74.283 282.394C-93.8394 294.351 -119.868 295.351 -138.548 278.38C-155.674 262.822 -162.23 232.844 -152.16 215.642C-147.399 207.507 -134.194 202.052 -132.877 189.477C-131.816 179.348 -139.314 172.383 -142.308 163.936C-145.34 155.381 -145.596 143.608 -138.87 137.558C-132.366 131.707 -125.924 131.705 -118.636 128.152C-111.798 124.819 -105.308 119.087 -98.4715 114.665C-88.4149 108.161 -79.6757 99.9777 -73.613 90.5387C-64.0437 75.6397 -60.9402 58.5232 -47.7509 46.109C-37.5573 36.5147 -24.2383 35.478 -14.0533 40.2258C-1.84189 45.9721 1.50723 55.2775 12.9143 62.6391C22.293 68.6513 38.7433 67.6548 51.1017 73.7065Z" stroke="#020403" stroke-width="0.8" stroke-miterlimit="10"/>
<path d="M45.284 77.382C76.6394 92.2316 58.3415 125.053 54.5323 148.331C51.8875 164.489 41.6323 170.94 39.1114 186.962C38.8453 188.656 38.605 190.359 38.4699 192.082C36.8195 213.113 38.0105 229.451 27.9142 242.635C22.4069 249.827 13.3831 257.104 2.74987 261.671C-8.75322 266.589 -18.7026 267.749 -27.7986 266.051C-43.1612 263.183 -63.7219 279.435 -76.4457 286.73C-95.6407 297.735 -120.605 298.209 -138.783 282.056C-155.535 267.173 -162.484 238.893 -154.354 221.913C-150.458 213.775 -138.998 207.993 -138.013 195.788C-137.228 186.048 -144.081 179.15 -146.771 170.917C-149.561 162.378 -149.658 150.997 -143.406 144.83C-137.346 138.852 -131.242 138.2 -124.298 134.4C-117.758 130.821 -111.465 125.125 -104.785 120.67C-95.0263 114.16 -86.3381 106.237 -79.9848 97.2796C-69.9209 83.0902 -65.4166 67.2868 -51.999 55.652C-41.9232 46.9153 -29.165 45.3948 -19.1997 49.1381C-7.23987 53.6305 -3.27376 61.2877 8.04794 67.506C17.3611 72.5802 33.0951 71.6094 45.284 77.382Z" stroke="#020403" stroke-width="0.8" stroke-miterlimit="10"/>
<path d="M39.4669 81.0564C72.3972 96.139 51.6399 129.795 48.7635 153.904C46.8761 169.726 38.7486 176.828 37.0016 192.566C36.8175 194.227 36.6461 195.899 36.5666 197.59C35.5796 218.52 35.4531 234.083 24.524 246.21C18.4746 252.922 9.12829 259.646 -1.37118 264.323C-12.7081 269.35 -22.3662 271.701 -31.5873 270.738C-46.5659 269.174 -66.0409 284.356 -78.6085 291.066C-97.4394 301.119 -121.343 301.067 -139.019 285.732C-155.397 271.522 -162.757 244.922 -156.548 228.183C-153.526 220.032 -143.798 213.935 -143.151 202.098C-142.639 192.746 -148.845 185.912 -151.236 177.895C-153.779 169.369 -153.723 158.384 -147.943 152.1C-142.329 145.996 -136.562 144.692 -129.962 140.646C-123.719 136.82 -117.621 131.161 -111.1 126.671C-101.639 120.158 -93.0006 112.495 -86.3587 104.019C-75.797 90.5394 -69.9124 76.0354 -56.2478 65.1937C-46.3044 57.3049 -34.1009 55.3295 -24.3469 58.0487C-12.6512 61.3089 -8.05682 67.2955 3.1808 72.371C12.4297 76.508 27.4514 75.5529 39.4669 81.0564Z" stroke="#020403" stroke-width="0.8" stroke-miterlimit="10"/>
<path d="M33.6499 84.7319C68.1665 100.017 44.875 134.535 42.9949 159.479C41.8277 174.962 35.867 182.717 34.8932 198.17C34.7906 199.799 34.6893 201.44 34.6641 203.098C34.3517 223.928 32.8827 238.701 21.134 249.786C14.5357 256.011 4.87303 262.189 -5.49272 266.976C-16.6635 272.111 -26.1315 273.993 -35.3765 275.427C-49.805 277.665 -68.3585 289.278 -80.7718 295.401C-99.2366 304.51 -122.083 303.927 -139.256 289.408C-155.262 275.874 -163.057 250.934 -158.743 234.453C-156.604 226.284 -148.595 219.878 -148.287 208.409C-148.047 199.447 -153.602 192.674 -155.699 184.876C-157.99 176.361 -157.787 165.773 -152.48 159.373C-147.311 153.141 -141.883 151.183 -135.626 146.894C-129.682 142.819 -123.777 137.2 -117.414 132.676C-108.25 126.16 -99.661 118.756 -92.7317 110.759C-81.6695 97.9932 -74.4258 84.7687 -60.4965 74.7367C-50.6994 67.6812 -39.0381 65.2661 -29.4945 66.9611C-18.0623 68.9904 -12.839 73.3064 -1.68682 77.238C7.49857 80.4363 21.8106 79.4891 33.6499 84.7319Z" stroke="#020403" stroke-width="0.8" stroke-miterlimit="10"/>
<path d="M27.832 88.4067C63.9473 103.863 38.0416 139.28 37.2246 165.053C36.744 180.203 32.9798 188.604 32.7826 203.774C32.762 205.37 32.7302 206.98 32.7594 208.606C33.1308 229.337 30.3007 243.303 17.743 253.36C10.5887 259.09 0.617482 264.731 -9.61454 269.628C-20.6191 274.873 -29.9363 277.835 -39.166 280.115C-53.0106 283.535 -70.675 294.203 -82.9355 299.736C-101.031 307.903 -122.825 306.789 -139.493 293.083C-155.127 280.228 -163.388 256.935 -160.938 240.722C-159.7 232.528 -153.391 225.82 -153.425 214.719C-153.452 206.146 -158.354 199.432 -160.165 191.855C-162.197 183.348 -161.854 173.158 -157.018 166.643C-152.297 160.282 -147.205 157.672 -141.29 153.14C-135.647 148.815 -129.932 143.237 -123.73 138.677C-114.862 132.16 -106.321 125.017 -99.1064 117.498C-87.5417 105.446 -78.9568 93.4783 -64.7461 84.2776C-55.1098 78.039 -43.9762 75.2013 -34.6425 75.8708C-23.475 76.6712 -17.6229 79.3133 -6.55539 82.1029C2.5671 84.3645 16.1727 83.4173 27.832 88.4067Z" stroke="#020403" stroke-width="0.8" stroke-miterlimit="10"/>
<path d="M22.0149 92.0816C59.7415 107.673 31.1387 144.037 31.4558 170.626C31.6326 185.452 30.0921 194.492 30.6733 209.378C30.7342 210.941 30.774 212.52 30.856 214.114C31.9186 234.744 27.7141 247.887 14.3528 256.936C6.63973 262.16 -3.63798 267.275 -13.7356 272.281C-24.574 277.634 -33.7601 281.647 -42.9547 284.803C-56.2446 289.364 -72.9888 299.132 -85.0983 304.071C-102.822 311.302 -123.566 309.651 -139.728 296.758C-154.993 284.581 -163.75 262.936 -163.131 246.992C-162.812 238.773 -158.178 231.763 -158.561 221.03C-158.853 212.844 -163.1 206.191 -164.628 198.833C-166.394 190.336 -165.919 180.543 -161.554 173.914C-157.281 167.425 -152.527 164.161 -146.953 159.387C-141.611 154.811 -136.086 149.276 -130.043 144.681C-121.472 138.163 -112.978 131.28 -105.478 124.238C-93.4092 112.905 -83.5042 102.16 -68.9929 93.8206C-59.5268 88.3804 -48.9122 85.1406 -39.7883 84.7832C-28.8844 84.3553 -22.404 85.3236 -11.4212 86.9698C-2.36427 88.2922 10.5363 87.3384 22.0149 92.0816Z" stroke="#020403" stroke-width="0.8" stroke-miterlimit="10"/>
<path d="M16.1972 95.757C55.5471 111.447 24.1625 148.815 25.6865 176.201C26.4941 190.717 27.2051 200.381 28.5636 214.982C28.7059 216.513 28.8184 218.06 28.9528 219.622C30.7204 240.148 25.1271 252.455 10.9627 260.511C2.68958 265.217 -7.89265 269.817 -17.8572 274.933C-28.5288 280.396 -37.6096 285.432 -46.744 289.491C-59.5168 295.166 -75.3031 304.065 -87.2623 308.406C-104.614 314.706 -124.312 312.515 -139.966 300.433C-154.861 288.937 -164.15 268.95 -165.327 253.262C-165.944 245.023 -162.964 237.704 -163.699 227.339C-164.251 219.543 -167.84 212.948 -169.093 205.813C-170.585 197.322 -169.988 187.927 -166.092 181.184C-162.267 174.565 -157.852 170.647 -152.618 165.632C-147.579 160.805 -142.24 155.315 -136.358 150.683C-128.082 144.165 -119.635 137.545 -111.852 130.977C-99.2758 120.365 -88.0667 110.805 -73.243 103.362C-63.955 98.698 -53.8474 95.0955 -44.9374 93.6928C-34.2936 92.0585 -27.1883 91.3305 -16.2902 91.834C-7.29618 92.2204 4.90136 91.2528 16.1972 95.757Z" stroke="#020403" stroke-width="0.8" stroke-miterlimit="10"/>
<path d="M10.3801 99.432C51.3645 115.18 17.1134 153.621 19.9177 181.775C21.3344 195.998 24.2909 206.274 26.4544 220.586C26.6762 222.084 26.8635 223.601 27.0502 225.13C29.538 245.548 22.5439 257.004 7.57321 264.087C-1.25867 268.265 -12.1474 272.36 -21.9776 277.586C-32.483 283.158 -41.4897 289.199 -50.5314 294.18C-62.8289 300.953 -77.6142 309.004 -89.4238 312.743C-106.402 318.12 -125.055 315.382 -140.2 304.11C-154.728 293.296 -164.575 274.988 -167.519 259.532C-169.089 251.287 -167.74 243.644 -168.833 233.65C-169.644 226.242 -172.571 219.707 -173.556 212.793C-174.764 204.309 -174.055 195.313 -170.627 188.455C-167.253 181.706 -163.176 177.134 -158.279 171.879C-153.545 166.799 -148.392 161.355 -142.671 156.685C-134.687 150.169 -126.289 143.812 -118.223 137.716C-105.139 127.829 -92.6365 119.407 -77.4891 112.904C-68.3818 108.995 -58.78 105.032 -50.0826 102.604C-39.7003 99.7394 -31.9687 97.3395 -21.1554 96.6997C-12.2275 96.1488 -0.733028 95.1614 10.3801 99.432Z" stroke="#020403" stroke-width="0.8" stroke-miterlimit="10"/>
<path d="M4.56231 103.107C47.1931 118.871 9.99145 158.462 14.1475 187.349C16.1548 201.301 21.4052 212.164 24.3438 226.189C24.647 227.656 24.9079 229.14 25.1455 230.639C28.3583 250.945 19.9666 261.541 4.18232 267.663C-5.20498 271.304 -16.4029 274.904 -26.0993 280.238C-36.4393 285.92 -45.4029 292.955 -54.3215 298.868C-66.1887 306.736 -79.928 313.946 -91.588 317.079C-108.192 321.539 -125.821 318.278 -140.438 307.785C-154.619 297.683 -165.019 281.057 -169.714 265.803C-172.249 257.565 -172.514 249.584 -173.972 239.962C-175.036 232.939 -177.298 226.467 -178.021 219.773C-178.936 211.298 -178.141 202.693 -175.165 195.727C-172.257 188.843 -168.506 183.621 -163.944 178.128C-159.515 172.794 -154.545 167.398 -148.986 162.69C-141.295 156.177 -132.946 150.083 -124.597 144.459C-111.005 135.3 -97.2124 127.96 -81.7386 122.448C-72.8121 119.268 -63.7154 114.971 -55.2304 111.517C-45.1096 107.423 -36.7517 103.351 -26.0239 101.568C-17.1589 100.076 -6.36747 99.0655 4.56231 103.107Z" stroke="#020403" stroke-width="0.8" stroke-miterlimit="10"/>
<path d="M-1.25494 106.782C43.0342 122.517 2.80054 163.344 8.37863 192.923C10.9631 206.627 18.5213 218.054 22.2345 231.793C22.6198 233.227 22.9548 234.679 23.2421 236.146C27.1943 256.332 17.3992 266.063 0.791995 271.238C-9.1461 274.334 -20.6585 277.446 -30.2212 282.89C-40.3943 288.68 -49.3467 296.707 -58.111 303.555C-69.5889 312.525 -82.2406 318.894 -93.7516 321.413C-109.983 324.965 -126.561 321.137 -140.674 311.459C-154.482 302.034 -165.468 287.158 -171.908 272.071C-175.413 263.86 -177.281 255.519 -179.109 246.271C-180.421 239.632 -182.019 233.228 -182.486 226.751C-183.096 218.286 -182.207 210.08 -179.703 202.997C-177.241 195.986 -173.846 190.098 -169.609 184.373C-165.497 178.779 -160.691 173.444 -155.301 168.691C-147.894 162.19 -139.594 156.367 -130.971 151.196C-116.858 142.791 -101.784 136.454 -85.9882 131.989C-77.2318 129.514 -68.6509 124.905 -60.3784 120.427C-50.5184 115.102 -41.5349 109.358 -30.8918 106.432C-22.091 104.005 -12.0027 102.963 -1.25494 106.782Z" stroke="#020403" stroke-width="0.8" stroke-miterlimit="10"/>
<path d="M-161.614 174.694C-142.851 157.526 -116.166 146.94 -90.2349 141.531C-62.9256 135.834 -41.1349 98.8527 -7.07251 110.457C38.8849 126.116 -4.44896 168.273 2.60939 198.498C6.0909 213.385 17.7681 226.422 21.339 241.654C26.0379 261.714 14.8413 270.573 -2.59798 274.813C-13.0822 277.356 -24.913 279.988 -34.342 285.543C-44.349 291.442 -53.3146 300.466 -61.8995 308.244C-118.173 359.279 -184.882 293.342 -186.949 233.731C-187.818 208.704 -177.588 189.313 -161.614 174.694Z" stroke="#020403" stroke-width="0.8" stroke-miterlimit="10"/>
</svg>
