<svg width="32" height="33" viewBox="0 0 32 33" fill="none" xmlns="http://www.w3.org/2000/svg">
<path d="M12.6667 4.5C15.9804 4.5 18.6667 9.87259 18.6667 16.5M12.6667 4.5C9.35296 4.5 6.66667 9.87259 6.66667 16.5C6.66667 23.1275 9.35296 28.5 12.6667 28.5M12.6667 4.5H20C22.9455 4.5 25.3333 9.87259 25.3333 16.5M18.6667 16.5C18.6667 23.1275 15.9804 28.5 12.6667 28.5M18.6667 16.5H25.3333M12.6667 28.5H20C22.9455 28.5 25.3333 23.1275 25.3333 16.5M24.4352 23.1667H17.6563M24.4352 9.83333H17.6563M12.6667 11.1667C13.7712 11.1667 14.6667 13.5545 14.6667 16.5C14.6667 19.4455 13.7712 21.8333 12.6667 21.8333C11.5621 21.8333 10.6667 19.4455 10.6667 16.5C10.6667 13.5545 11.5621 11.1667 12.6667 11.1667Z" stroke="#B8FF5B" stroke-width="2" stroke-linecap="round" stroke-linejoin="round"/>
</svg>
