<svg width="32" height="33" viewBox="0 0 32 33" fill="none" xmlns="http://www.w3.org/2000/svg">
<path fill-rule="evenodd" clip-rule="evenodd" d="M16 7.89777C14.3007 7.89777 12.9231 9.28425 12.9231 10.9945C12.9231 12.7049 14.3007 14.0914 16 14.0914C17.6993 14.0914 19.0769 12.7049 19.0769 10.9945C19.0769 9.28425 17.6993 7.89777 16 7.89777ZM10.8718 10.9945C10.8718 8.14405 13.1678 5.83325 16 5.83325C18.8323 5.83325 21.1283 8.14405 21.1283 10.9945C21.1283 13.8451 18.8323 16.1559 16 16.1559C13.1678 16.1559 10.8718 13.8451 10.8718 10.9945Z" fill="#B8FF5B"/>
<path fill-rule="evenodd" clip-rule="evenodd" d="M13.9767 20.2848C11.8842 20.2848 10.188 21.992 10.188 24.0979C10.188 24.1389 10.1915 24.172 10.1961 24.1968C10.1967 24.2001 10.1973 24.2032 10.1979 24.206C10.7457 24.5112 12.2958 25.102 16 25.102C19.7041 25.102 21.2543 24.5112 21.8021 24.206C21.8027 24.2032 21.8033 24.2001 21.8039 24.1968C21.8085 24.172 21.812 24.1389 21.812 24.0979C21.812 21.992 20.1157 20.2848 18.0233 20.2848H13.9767ZM8.13675 24.0979C8.13675 20.8517 10.7514 18.2203 13.9767 18.2203H18.0233C21.2487 18.2203 23.8632 20.8517 23.8632 24.0979C23.8632 24.6771 23.6683 25.4977 22.8933 25.9561C21.9519 26.5131 20.0087 27.1665 16 27.1665C11.9913 27.1665 10.0482 26.5131 9.10664 25.9561C8.33176 25.4977 8.13675 24.6771 8.13675 24.0979Z" fill="#B8FF5B"/>
<path fill-rule="evenodd" clip-rule="evenodd" d="M22.1893 7.97254C22.3372 7.42219 22.9003 7.09662 23.4471 7.24536C25.3188 7.75448 26.5983 9.60444 26.5983 11.6827C26.5983 13.8792 25.1005 15.8896 22.9599 16.1484C22.3975 16.2164 21.8868 15.8127 21.8193 15.2467C21.7517 14.6807 22.1529 14.1667 22.7153 14.0987C23.6516 13.9855 24.5471 13.0201 24.5471 11.6827C24.5471 10.4131 23.7752 9.47322 22.9119 9.23836C22.3651 9.08963 22.0416 8.5229 22.1893 7.97254Z" fill="#B8FF5B"/>
<path fill-rule="evenodd" clip-rule="evenodd" d="M24.566 19.0549C24.6744 18.4955 25.2131 18.1303 25.7689 18.2395C27.8392 18.6457 29.3333 20.4712 29.3333 22.594V23.152C29.3333 23.6819 29.1755 24.4824 28.4404 24.9552C27.9809 25.2508 27.2847 25.5553 26.2319 25.7697C25.6767 25.8828 25.1356 25.5215 25.0232 24.9627C24.9109 24.4039 25.2699 23.8592 25.8251 23.7463C26.6059 23.5872 27.0471 23.3873 27.2744 23.2535L27.2747 23.2516C27.2789 23.2267 27.282 23.1935 27.282 23.152V22.594C27.282 21.4589 26.4832 20.4831 25.3763 20.2657C24.8204 20.1567 24.4576 19.6145 24.566 19.0549Z" fill="#B8FF5B"/>
<path fill-rule="evenodd" clip-rule="evenodd" d="M9.81062 15.3929C9.66284 15.9432 9.09974 16.2688 8.55292 16.12C6.68122 15.6109 5.4017 13.761 5.4017 11.6827C5.4017 9.4862 6.89946 7.47573 9.04006 7.21694C9.60248 7.14894 10.1132 7.55269 10.1807 8.11872C10.2483 8.68476 9.84712 9.19873 9.28472 9.26672C8.3484 9.37992 7.45298 10.3453 7.45298 11.6827C7.45298 12.9523 8.22476 13.8923 9.0881 14.1271C9.63493 14.2757 9.95842 14.8425 9.81062 15.3929Z" fill="#B8FF5B"/>
<path fill-rule="evenodd" clip-rule="evenodd" d="M7.43403 19.0549C7.3256 18.4955 6.787 18.1303 6.23103 18.2395C4.16081 18.6457 2.66667 20.4712 2.66667 22.594V23.152C2.66667 23.6819 2.82451 24.4824 3.55958 24.9552C4.01905 25.2508 4.71538 25.5553 5.76812 25.7697C6.32332 25.8828 6.86446 25.5215 6.97679 24.9627C7.08911 24.4039 6.7301 23.8592 6.1749 23.7463C5.39408 23.5872 4.95297 23.3873 4.72564 23.2535L4.72534 23.2516C4.7211 23.2267 4.71795 23.1935 4.71795 23.152V22.594C4.71795 21.4589 5.5168 20.4831 6.62368 20.2657C7.17966 20.1567 7.54246 19.6145 7.43403 19.0549Z" fill="#B8FF5B"/>
</svg>
