<svg width="16" height="17" viewBox="0 0 16 17" fill="none" xmlns="http://www.w3.org/2000/svg">
<g id="Frame">
<path id="Vector" d="M12.8437 9.51067C12.998 9.39124 13.1229 9.23805 13.2088 9.06286C13.2948 8.88768 13.3395 8.69513 13.3395 8.5C13.3395 8.30487 13.2948 8.11232 13.2088 7.93714C13.1229 7.76195 12.998 7.60877 12.8437 7.48933C10.8453 5.94311 8.61395 4.72435 6.233 3.87867L5.79767 3.724C4.96567 3.42867 4.087 3.99133 3.97434 4.85067C3.6596 7.27338 3.6596 9.72662 3.97434 12.1493C4.087 13.0087 4.96567 13.5713 5.79767 13.276L6.233 13.1213C8.61396 12.2757 10.8454 11.0569 12.8437 9.51067Z" fill="black"/>
</g>
</svg>
