<svg width="32" height="33" viewBox="0 0 32 33" fill="none" xmlns="http://www.w3.org/2000/svg">
<path d="M4.6093 20.2843C5.00442 19.6632 5.5755 19.1437 6.29211 18.8096C7.62683 18.1872 9.21336 18.7647 9.83575 20.0993L12.0898 24.9332C12.7122 26.268 12.1347 27.8545 10.8 28.4769C8.79798 29.4105 6.41818 28.5443 5.4846 26.5423L4.35746 24.1251C3.75804 22.8396 3.90056 21.3984 4.6093 20.2843ZM4.6093 20.2843C4.21427 19.0947 4.00039 17.8223 4.00039 16.5C4.00039 9.87259 9.37298 4.5 16.0004 4.5C22.6278 4.5 28.0004 9.87259 28.0004 16.5C28.0004 17.868 27.7714 19.1827 27.3498 20.4076M27.3498 20.4076C26.9536 19.732 26.3552 19.1656 25.5917 18.8096C24.257 18.1872 22.6705 18.7647 22.0481 20.0993L19.794 24.9332C19.1716 26.268 19.749 27.8545 21.0838 28.4769C23.0858 29.4105 25.4657 28.5443 26.3992 26.5423L27.5264 24.1251C28.104 22.8865 27.9926 21.5033 27.3498 20.4076ZM23.4172 7.06543L21.3348 9.83249C19.9618 9.01612 17.7022 8.49992 16.0028 8.49992C14.269 8.49992 12.0605 8.98615 10.6694 9.83325L8.58136 7.06791" stroke="#B8FF5B" stroke-width="2" stroke-linejoin="round"/>
</svg>
