<svg width="32" height="40" viewBox="0 0 32 40" fill="none" xmlns="http://www.w3.org/2000/svg">
<g id="Group">
<g id="Group_2">
<g id="Group_3">
<path id="Vector" d="M15.5708 40L1.42773 36.7326V10.752L15.5708 14.0194V40Z" fill="#FA4E45"/>
<path id="Vector_2" d="M15.5708 40L29.7141 36.7326V10.752L15.5708 14.0194V40Z" fill="#D92637"/>
</g>
<path id="Vector_3" opacity="0.11" d="M15.5713 18.266L1.42822 14.9986V10.752L15.5713 14.0194V18.266Z" fill="#402F10"/>
<path id="Vector_4" d="M15.5713 40L29.7146 36.7326V10.752L15.5713 14.0194V40Z" fill="#D92637"/>
<path id="Vector_5" opacity="0.11" d="M15.5713 18.266L29.7146 14.9986V10.752L15.5713 14.0194V18.266Z" fill="#402F10"/>
<g id="Group_4">
<path id="Vector_6" d="M15.5713 5.65723L0 9.25476V13.5014L15.5713 15.1785L31.1429 13.5014V9.25476L15.5713 5.65723Z" fill="#FA4E45"/>
<path id="Vector_7" d="M15.5713 17.1706L0 13.5731V9.32617L15.5713 12.924V17.1706Z" fill="#FA6B64"/>
<path id="Vector_8" d="M15.5713 17.1706L31.1429 13.5731V9.32617L15.5713 12.924V17.1706Z" fill="#D92637"/>
</g>
<g id="Group_5">
<path id="Vector_9" d="M10.5481 12.8585L6.57544 11.9404V37.921L10.5481 38.8389V12.8585Z" fill="#850063"/>
</g>
<path id="Vector_10" opacity="0.11" d="M10.5486 12.8595L6.57593 11.9414V16.188L10.5486 17.1059V12.8595Z" fill="#402F10"/>
<g id="Group_6">
<path id="Vector_11" d="M10.5481 11.7626L6.57544 10.8447V15.0914L10.5481 16.0092V11.7626Z" fill="#850063"/>
</g>
<g id="Group_7">
<g id="Group_8">
<path id="Vector_12" d="M10.5485 11.7631L6.56445 10.8948L13.6432 8.57129L17.6273 9.43963L10.5485 11.7631Z" fill="#A8007D"/>
</g>
<g id="Group_9">
<path id="Vector_13" d="M20.5944 11.7631L24.5782 10.8948L17.4997 8.57129L13.5156 9.43963L20.5944 11.7631Z" fill="#A8007D"/>
</g>
</g>
<g id="Group_10">
<g id="Group_11">
<path id="Vector_14" d="M10.5485 6.66016L6.56445 7.52825L13.6432 9.85172L17.6273 8.98362L10.5485 6.66016Z" fill="#A8007D"/>
</g>
<g id="Group_12">
<path id="Vector_15" d="M20.5944 6.66016L24.5782 7.52825L17.4997 9.85172L13.5156 8.98362L20.5944 6.66016Z" fill="#A8007D"/>
</g>
</g>
<g id="Group_13">
<g id="Group_14">
<path id="Vector_16" d="M20.5935 12.8585L24.5662 11.9404V37.921L20.5935 38.8389V12.8585Z" fill="#850063"/>
</g>
<path id="Vector_17" opacity="0.11" d="M20.594 12.8585L24.5667 11.9404V16.1871L20.594 17.1049V12.8585Z" fill="#402F10"/>
<g id="Group_15">
<path id="Vector_18" d="M20.5935 11.7626L24.5662 10.8447V15.0914L20.5935 16.0092V11.7626Z" fill="#850063"/>
</g>
</g>
<g id="Group_16">
<g id="Group_17">
<path id="Vector_19" d="M16.1921 8.66929C16.1921 8.66929 26.7749 8.72447 26.3144 1.49517L26.3332 0.942383C26.3332 0.942383 27.8107 1.18847 28.1184 1.54517C28.9261 2.48126 28.7209 4.88627 27.1535 6.39558C25.5858 7.90515 21.3111 10.221 16.1921 8.66929Z" fill="#5E0046"/>
<path id="Vector_20" d="M14.9392 7.87299C14.9392 7.87299 16.9309 9.33427 19.0614 4.62181C21.091 0.132533 25.6801 -1.47434 28.1186 1.54479C28.1186 1.54479 25.5059 0.942002 24.1124 2.1833C21.5312 4.48263 21.5578 7.69883 18.771 8.97609C15.9842 10.2534 14.9392 7.87299 14.9392 7.87299Z" fill="#850063"/>
</g>
<g id="Group_18">
<path id="Vector_21" d="M14.7354 8.66929C14.7354 8.66929 4.15268 8.72447 4.61309 1.49517L4.59436 0.942383C4.59436 0.942383 3.11683 1.18847 2.80915 1.54517C2.0014 2.48126 2.2066 4.88627 3.77406 6.39558C5.34151 7.90515 9.61623 10.221 14.7354 8.66929Z" fill="#5E0046"/>
<path id="Vector_22" d="M15.9882 7.87299C15.9882 7.87299 13.9966 9.33427 11.866 4.62181C9.83639 0.132533 5.24735 -1.47434 2.80884 1.54479C2.80884 1.54479 5.42151 0.942002 6.81505 2.1833C9.39618 4.48263 9.36958 7.69883 12.1564 8.97609C14.9432 10.2534 15.9882 7.87299 15.9882 7.87299Z" fill="#850063"/>
</g>
<path id="Vector_23" d="M16.8211 8.78945C16.8211 9.53881 16.2136 10.1465 15.464 10.1465C14.7144 10.1465 14.1072 9.53906 14.1072 8.78945C14.1072 8.03984 14.7146 7.43262 15.464 7.43262C16.2134 7.43262 16.8211 8.04009 16.8211 8.78945Z" fill="#5E0046"/>
</g>
</g>
</g>
</svg>
