<svg width="14" height="15" viewBox="0 0 14 15" fill="none" xmlns="http://www.w3.org/2000/svg">
<g id="music-note-svgrepo-com (1) 1">
<path id="Vector" d="M5.88636 7.47868L11.2954 5.535V8.76657C10.974 8.58171 10.5918 8.47449 10.1818 8.47449C9.03957 8.47449 8.11364 9.30632 8.11364 10.3324C8.11364 11.3585 9.03957 12.1903 10.1818 12.1903C11.324 12.1903 12.25 11.3585 12.25 10.3324V4.87087C12.25 4.21755 12.25 3.66963 12.1988 3.23308C12.1916 3.17138 12.183 3.11004 12.1736 3.05281C12.1243 2.75456 12.0372 2.47634 11.8691 2.24401C11.785 2.12784 11.6807 2.02315 11.5507 1.93316C11.5263 1.91629 11.501 1.89993 11.4748 1.88411L11.4696 1.88095C11.0195 1.61188 10.5136 1.63113 9.99238 1.75044C9.48833 1.86583 8.8634 2.10081 8.09713 2.38894L6.76451 2.88999C6.40535 3.02503 6.10103 3.13944 5.86215 3.25794C5.60803 3.38402 5.38912 3.53273 5.22496 3.75432C5.06079 3.97592 4.99261 4.21474 4.96126 4.47401C4.93179 4.7177 4.9318 5.01404 4.93182 5.36383V9.9099C4.61036 9.72504 4.2282 9.61782 3.81818 9.61782C2.67595 9.61782 1.75 10.4497 1.75 11.4757C1.75 12.5018 2.67595 13.3337 3.81818 13.3337C4.9604 13.3337 5.88636 12.5018 5.88636 11.4757V7.47868Z" fill="#C1FF70"/>
</g>
</svg>
