<svg width="12" height="12" viewBox="0 0 12 12" fill="none" xmlns="http://www.w3.org/2000/svg">
<g id="bell-svgrepo-com 1">
<g id="Group 1">
<path id="Vector" d="M2.99994 5C2.99994 3.34314 4.34309 2 5.99994 2C7.65679 2 8.99994 3.34314 8.99994 5V5.91547C8.99994 6.62515 9.19279 7.32145 9.55794 7.92995L9.83464 8.39115C10.0181 8.69705 10.1099 8.85 10.1162 8.97485C10.1259 9.1683 10.0231 9.34995 9.85219 9.44115C9.74189 9.5 9.56354 9.5 9.20684 9.5H2.79309C2.43637 9.5 2.25801 9.5 2.14769 9.44115C1.97681 9.34995 1.87396 9.1683 1.88369 8.97485C1.88997 8.85 1.98174 8.69705 2.16527 8.39115L2.44198 7.92995C2.80708 7.32145 2.99994 6.62515 2.99994 5.91549V5Z" fill="#C1FF70"/>
<path id="Vector_2" d="M7.17497 10C7.21637 10 7.25032 10.0336 7.24647 10.0749C7.22417 10.3127 7.09612 10.5373 6.88387 10.7071C6.64942 10.8946 6.33147 11 5.99997 11C5.66847 11 5.35051 10.8946 5.11606 10.7071C4.90382 10.5373 4.77579 10.3127 4.75348 10.0749C4.74961 10.0336 4.78354 10 4.82496 10H5.99997H7.17497Z" fill="#C1FF70"/>
</g>
</g>
</svg>
