<svg width="80" height="80" viewBox="0 0 80 80" fill="none" xmlns="http://www.w3.org/2000/svg">
<rect width="80" height="80" fill="#FC8D27"/>
<rect width="4" height="4" transform="translate(26 16)" fill="#B8FF5B"/>
<rect width="4" height="4" transform="translate(30 16)" fill="#B8FF5B"/>
<rect width="4" height="4" transform="translate(34 16)" fill="#B8FF5B"/>
<rect width="4" height="4" transform="translate(38 16)" fill="#B8FF5B"/>
<rect width="4" height="4" transform="translate(42 16)" fill="#B8FF5B"/>
<rect width="4" height="4" transform="translate(46 16)" fill="#B8FF5B"/>
<rect width="4" height="4" transform="translate(50 16)" fill="#B8FF5B"/>
<rect width="4" height="4" transform="translate(22 20)" fill="#B8FF5B"/>
<rect width="4" height="4" transform="translate(26 20)" fill="#B8FF5B"/>
<rect width="4" height="4" transform="translate(30 20)" fill="#B8FF5B"/>
<rect width="4" height="4" transform="translate(34 20)" fill="#B8FF5B"/>
<rect width="4" height="4" transform="translate(38 20)" fill="#B8FF5B"/>
<rect width="4" height="4" transform="translate(42 20)" fill="#B8FF5B"/>
<rect width="4" height="4" transform="translate(46 20)" fill="#B8FF5B"/>
<rect width="4" height="4" transform="translate(50 20)" fill="#B8FF5B"/>
<rect width="4" height="4" transform="translate(54 20)" fill="#B8FF5B"/>
<rect width="4" height="4" transform="translate(18 24)" fill="#B8FF5B"/>
<rect width="4" height="4" transform="translate(22 24)" fill="#B8FF5B"/>
<rect width="4" height="4" transform="translate(26 24)" fill="#FC8D27"/>
<rect width="4" height="4" transform="translate(30 24)" fill="#FC8D27"/>
<rect width="4" height="4" transform="translate(34 24)" fill="#FC8D27"/>
<rect width="4" height="4" transform="translate(38 24)" fill="#FC8D27"/>
<rect width="4" height="4" transform="translate(42 24)" fill="#FC8D27"/>
<rect width="4" height="4" transform="translate(46 24)" fill="#FC8D27"/>
<rect width="4" height="4" transform="translate(50 24)" fill="#FC8D27"/>
<rect width="4" height="4" transform="translate(54 24)" fill="#B8FF5B"/>
<rect width="4" height="4" transform="translate(58 24)" fill="#B8FF5B"/>
<rect width="4" height="4" transform="translate(16 28)" fill="#B8FF5B"/>
<rect width="4" height="4" transform="translate(20 28)" fill="#B8FF5B"/>
<rect width="4" height="4" transform="translate(24 28)" fill="#FC8D27"/>
<rect width="4" height="4" transform="translate(28 28)" fill="#FC8D27"/>
<rect width="4" height="4" transform="translate(32 28)" fill="#FC8D27"/>
<rect width="4" height="4" transform="translate(36 28)" fill="#FC8D27"/>
<rect width="4" height="4" transform="translate(40 28)" fill="#FC8D27"/>
<rect width="4" height="4" transform="translate(44 28)" fill="#FC8D27"/>
<rect width="4" height="4" transform="translate(48 28)" fill="#FC8D27"/>
<rect width="4" height="4" transform="translate(52 28)" fill="#FC8D27"/>
<rect width="4" height="4" transform="translate(56 28)" fill="#B8FF5B"/>
<rect width="4" height="4" transform="translate(60 28)" fill="#B8FF5B"/>
<rect width="4" height="4" transform="translate(16 32)" fill="#B8FF5B"/>
<rect width="4" height="4" transform="translate(20 32)" fill="#B8FF5B"/>
<rect width="4" height="4" transform="translate(24 32)" fill="#FC8D27"/>
<rect width="4" height="4" transform="translate(28 32)" fill="#FC8D27"/>
<rect width="4" height="4" transform="translate(32 32)" fill="#FC8D27"/>
<rect width="4" height="4" transform="translate(36 32)" fill="#FC8D27"/>
<rect width="4" height="4" transform="translate(40 32)" fill="#FC8D27"/>
<rect width="4" height="4" transform="translate(44 32)" fill="#FC8D27"/>
<rect width="4" height="4" transform="translate(48 32)" fill="#FC8D27"/>
<rect width="4" height="4" transform="translate(52 32)" fill="#FC8D27"/>
<rect width="4" height="4" transform="translate(56 32)" fill="#B8FF5B"/>
<rect width="4" height="4" transform="translate(60 32)" fill="#B8FF5B"/>
<rect width="4" height="4" transform="translate(16 36)" fill="#B8FF5B"/>
<rect width="4" height="4" transform="translate(20 36)" fill="#B8FF5B"/>
<rect width="4" height="4" transform="translate(24 36)" fill="#FC8D27"/>
<rect width="4" height="4" transform="translate(28 36)" fill="#FC8D27"/>
<rect width="4" height="4" transform="translate(32 36)" fill="#FC8D27"/>
<rect width="4" height="4" transform="translate(36 36)" fill="#FC8D27"/>
<rect width="4" height="4" transform="translate(40 36)" fill="#FC8D27"/>
<rect width="4" height="4" transform="translate(44 36)" fill="#FC8D27"/>
<rect width="4" height="4" transform="translate(48 36)" fill="#FC8D27"/>
<rect width="4" height="4" transform="translate(52 36)" fill="#FC8D27"/>
<rect width="4" height="4" transform="translate(56 36)" fill="#B8FF5B"/>
<rect width="4" height="4" transform="translate(60 36)" fill="#B8FF5B"/>
<rect width="4" height="4" transform="translate(16 40)" fill="#B8FF5B"/>
<rect width="4" height="4" transform="translate(20 40)" fill="#B8FF5B"/>
<rect width="4" height="4" transform="translate(24 40)" fill="#FC8D27"/>
<rect width="4" height="4" transform="translate(28 40)" fill="#FC8D27"/>
<rect width="4" height="4" transform="translate(32 40)" fill="#FC8D27"/>
<rect width="4" height="4" transform="translate(36 40)" fill="#FC8D27"/>
<rect width="4" height="4" transform="translate(40 40)" fill="#FC8D27"/>
<rect width="4" height="4" transform="translate(44 40)" fill="#FC8D27"/>
<rect width="4" height="4" transform="translate(48 40)" fill="#FC8D27"/>
<rect width="4" height="4" transform="translate(52 40)" fill="#FC8D27"/>
<rect width="4" height="4" transform="translate(56 40)" fill="#B8FF5B"/>
<rect width="4" height="4" transform="translate(60 40)" fill="#B8FF5B"/>
<rect width="4" height="4" transform="translate(16 44)" fill="#B8FF5B"/>
<rect width="4" height="4" transform="translate(20 44)" fill="#B8FF5B"/>
<rect width="4" height="4" transform="translate(24 44)" fill="#FC8D27"/>
<rect width="4" height="4" transform="translate(28 44)" fill="#FC8D27"/>
<rect width="4" height="4" transform="translate(32 44)" fill="#FC8D27"/>
<rect width="4" height="4" transform="translate(36 44)" fill="#FC8D27"/>
<rect width="4" height="4" transform="translate(40 44)" fill="#FC8D27"/>
<rect width="4" height="4" transform="translate(44 44)" fill="#FC8D27"/>
<rect width="4" height="4" transform="translate(48 44)" fill="#FC8D27"/>
<rect width="4" height="4" transform="translate(52 44)" fill="#FC8D27"/>
<rect width="4" height="4" transform="translate(56 44)" fill="#B8FF5B"/>
<rect width="4" height="4" transform="translate(60 44)" fill="#B8FF5B"/>
<rect width="4" height="4" transform="translate(16 48)" fill="#B8FF5B"/>
<rect width="4" height="4" transform="translate(20 48)" fill="#B8FF5B"/>
<rect width="4" height="4" transform="translate(24 48)" fill="#FC8D27"/>
<rect width="4" height="4" transform="translate(28 48)" fill="#FC8D27"/>
<rect width="4" height="4" transform="translate(32 48)" fill="#FC8D27"/>
<rect width="4" height="4" transform="translate(36 48)" fill="#FC8D27"/>
<rect width="4" height="4" transform="translate(40 48)" fill="#FC8D27"/>
<rect width="4" height="4" transform="translate(44 48)" fill="#FC8D27"/>
<rect width="4" height="4" transform="translate(48 48)" fill="#FC8D27"/>
<rect width="4" height="4" transform="translate(52 48)" fill="#FC8D27"/>
<rect width="4" height="4" transform="translate(56 48)" fill="#B8FF5B"/>
<rect width="4" height="4" transform="translate(60 48)" fill="#B8FF5B"/>
<rect width="4" height="4" transform="translate(18 52)" fill="#B8FF5B"/>
<rect width="4" height="4" transform="translate(22 52)" fill="#B8FF5B"/>
<rect width="4" height="4" transform="translate(26 52)" fill="#FC8D27"/>
<rect width="4" height="4" transform="translate(30 52)" fill="#FC8D27"/>
<rect width="4" height="4" transform="translate(34 52)" fill="#FC8D27"/>
<rect width="4" height="4" transform="translate(38 52)" fill="#FC8D27"/>
<rect width="4" height="4" transform="translate(42 52)" fill="#FC8D27"/>
<rect width="4" height="4" transform="translate(46 52)" fill="#FC8D27"/>
<rect width="4" height="4" transform="translate(50 52)" fill="#FC8D27"/>
<rect width="4" height="4" transform="translate(54 52)" fill="#B8FF5B"/>
<rect width="4" height="4" transform="translate(58 52)" fill="#B8FF5B"/>
<rect width="4" height="4" transform="translate(22 56)" fill="#B8FF5B"/>
<rect width="4" height="4" transform="translate(26 56)" fill="#B8FF5B"/>
<rect width="4" height="4" transform="translate(30 56)" fill="#B8FF5B"/>
<rect width="4" height="4" transform="translate(34 56)" fill="#B8FF5B"/>
<rect width="4" height="4" transform="translate(38 56)" fill="#B8FF5B"/>
<rect width="4" height="4" transform="translate(42 56)" fill="#B8FF5B"/>
<rect width="4" height="4" transform="translate(46 56)" fill="#B8FF5B"/>
<rect width="4" height="4" transform="translate(50 56)" fill="#B8FF5B"/>
<rect width="4" height="4" transform="translate(54 56)" fill="#B8FF5B"/>
<rect width="4" height="4" transform="translate(26 60)" fill="#B8FF5B"/>
<rect width="4" height="4" transform="translate(30 60)" fill="#B8FF5B"/>
<rect width="4" height="4" transform="translate(34 60)" fill="#B8FF5B"/>
<rect width="4" height="4" transform="translate(38 60)" fill="#B8FF5B"/>
<rect width="4" height="4" transform="translate(42 60)" fill="#B8FF5B"/>
<rect width="4" height="4" transform="translate(46 60)" fill="#B8FF5B"/>
<rect width="4" height="4" transform="translate(50 60)" fill="#B8FF5B"/>
</svg>
