<svg width="80" height="80" viewBox="0 0 80 80" fill="none" xmlns="http://www.w3.org/2000/svg">
<rect width="80" height="80" fill="#FC8D27"/>
<rect width="4" height="4" transform="translate(16 16)" fill="#B8FF5B"/>
<rect width="4" height="4" transform="translate(20 16)" fill="#B8FF5B"/>
<rect width="4" height="4" transform="translate(24 16)" fill="#B8FF5B"/>
<rect width="4" height="4" transform="translate(28 16)" fill="#B8FF5B"/>
<rect width="4" height="4" transform="translate(32 16)" fill="#B8FF5B"/>
<rect width="4" height="4" transform="translate(36 16)" fill="#B8FF5B"/>
<rect width="4" height="4" transform="translate(40 16)" fill="#B8FF5B"/>
<rect width="4" height="4" transform="translate(44 16)" fill="#B8FF5B"/>
<rect width="4" height="4" transform="translate(48 16)" fill="#B8FF5B"/>
<rect width="4" height="4" transform="translate(52 16)" fill="#B8FF5B"/>
<rect width="4" height="4" transform="translate(56 16)" fill="#B8FF5B"/>
<rect width="4" height="4" transform="translate(60 16)" fill="#B8FF5B"/>
<rect width="4" height="4" transform="translate(16 20)" fill="#B8FF5B"/>
<rect width="4" height="4" transform="translate(20 20)" fill="#FC8D27"/>
<rect width="4" height="4" transform="translate(24 20)" fill="#FC8D27"/>
<rect width="4" height="4" transform="translate(28 20)" fill="#FC8D27"/>
<rect width="4" height="4" transform="translate(32 20)" fill="#FC8D27"/>
<rect width="4" height="4" transform="translate(36 20)" fill="#FC8D27"/>
<rect width="4" height="4" transform="translate(40 20)" fill="#FC8D27"/>
<rect width="4" height="4" transform="translate(44 20)" fill="#FC8D27"/>
<rect width="4" height="4" transform="translate(48 20)" fill="#FC8D27"/>
<rect width="4" height="4" transform="translate(52 20)" fill="#FC8D27"/>
<rect width="4" height="4" transform="translate(56 20)" fill="#FC8D27"/>
<rect width="4" height="4" transform="translate(60 20)" fill="#B8FF5B"/>
<rect width="4" height="4" transform="translate(16 24)" fill="#B8FF5B"/>
<rect width="4" height="4" transform="translate(20 24)" fill="#FC8D27"/>
<rect width="4" height="4" transform="translate(24 24)" fill="#FC8D27"/>
<rect width="4" height="4" transform="translate(28 24)" fill="#FC8D27"/>
<rect width="4" height="4" transform="translate(32 24)" fill="#FC8D27"/>
<rect width="4" height="4" transform="translate(36 24)" fill="#FC8D27"/>
<rect width="4" height="4" transform="translate(40 24)" fill="#FC8D27"/>
<rect width="4" height="4" transform="translate(44 24)" fill="#FC8D27"/>
<rect width="4" height="4" transform="translate(48 24)" fill="#FC8D27"/>
<rect width="4" height="4" transform="translate(52 24)" fill="#FC8D27"/>
<rect width="4" height="4" transform="translate(56 24)" fill="#FC8D27"/>
<rect width="4" height="4" transform="translate(60 24)" fill="#B8FF5B"/>
<rect width="4" height="4" transform="translate(16 28)" fill="#B8FF5B"/>
<rect width="4" height="4" transform="translate(20 28)" fill="#FC8D27"/>
<rect width="4" height="4" transform="translate(24 28)" fill="#FC8D27"/>
<rect width="4" height="4" transform="translate(28 28)" fill="#FC8D27"/>
<rect width="4" height="4" transform="translate(32 28)" fill="#FC8D27"/>
<rect width="4" height="4" transform="translate(36 28)" fill="#FC8D27"/>
<rect width="4" height="4" transform="translate(40 28)" fill="#FC8D27"/>
<rect width="4" height="4" transform="translate(44 28)" fill="#FC8D27"/>
<rect width="4" height="4" transform="translate(48 28)" fill="#FC8D27"/>
<rect width="4" height="4" transform="translate(52 28)" fill="#FC8D27"/>
<rect width="4" height="4" transform="translate(56 28)" fill="#FC8D27"/>
<rect width="4" height="4" transform="translate(60 28)" fill="#B8FF5B"/>
<rect width="4" height="4" transform="translate(16 32)" fill="#B8FF5B"/>
<rect width="4" height="4" transform="translate(20 32)" fill="#FC8D27"/>
<rect width="4" height="4" transform="translate(24 32)" fill="#FC8D27"/>
<rect width="4" height="4" transform="translate(28 32)" fill="#FC8D27"/>
<rect width="4" height="4" transform="translate(32 32)" fill="#FC8D27"/>
<rect width="4" height="4" transform="translate(36 32)" fill="#FC8D27"/>
<rect width="4" height="4" transform="translate(40 32)" fill="#FC8D27"/>
<rect width="4" height="4" transform="translate(44 32)" fill="#FC8D27"/>
<rect width="4" height="4" transform="translate(48 32)" fill="#FC8D27"/>
<rect width="4" height="4" transform="translate(52 32)" fill="#FC8D27"/>
<rect width="4" height="4" transform="translate(56 32)" fill="#B8FF5B"/>
<rect width="4" height="4" transform="translate(60 32)" fill="#B8FF5B"/>
<rect width="4" height="4" transform="translate(16 36)" fill="#B8FF5B"/>
<rect width="4" height="4" transform="translate(20 36)" fill="#B8FF5B"/>
<rect width="4" height="4" transform="translate(24 36)" fill="#B8FF5B"/>
<rect width="4" height="4" transform="translate(28 36)" fill="#B8FF5B"/>
<rect width="4" height="4" transform="translate(32 36)" fill="#B8FF5B"/>
<rect width="4" height="4" transform="translate(36 36)" fill="#B8FF5B"/>
<rect width="4" height="4" transform="translate(40 36)" fill="#B8FF5B"/>
<rect width="4" height="4" transform="translate(44 36)" fill="#B8FF5B"/>
<rect width="4" height="4" transform="translate(48 36)" fill="#B8FF5B"/>
<rect width="4" height="4" transform="translate(52 36)" fill="#B8FF5B"/>
<rect width="4" height="4" transform="translate(56 36)" fill="#B8FF5B"/>
<rect width="4" height="4" transform="translate(60 36)" fill="#B8FF5B"/>
<rect width="4" height="4" transform="translate(16 40)" fill="#B8FF5B"/>
<rect width="4" height="4" transform="translate(20 40)" fill="#FC8D27"/>
<rect width="4" height="4" transform="translate(24 40)" fill="#FC8D27"/>
<rect width="4" height="4" transform="translate(28 40)" fill="#FC8D27"/>
<rect width="4" height="4" transform="translate(32 40)" fill="#FC8D27"/>
<rect width="4" height="4" transform="translate(36 40)" fill="#FC8D27"/>
<rect width="4" height="4" transform="translate(40 40)" fill="#FC8D27"/>
<rect width="4" height="4" transform="translate(44 40)" fill="#FC8D27"/>
<rect width="4" height="4" transform="translate(48 40)" fill="#B8FF5B"/>
<rect width="4" height="4" transform="translate(52 40)" fill="#B8FF5B"/>
<rect width="4" height="4" transform="translate(56 40)" fill="#B8FF5B"/>
<rect width="4" height="4" transform="translate(60 40)" fill="#B8FF5B"/>
<rect width="4" height="4" transform="translate(16 44)" fill="#B8FF5B"/>
<rect width="4" height="4" transform="translate(20 44)" fill="#B8FF5B"/>
<rect width="4" height="4" transform="translate(24 44)" fill="#B8FF5B"/>
<rect width="4" height="4" transform="translate(28 44)" fill="#B8FF5B"/>
<rect width="4" height="4" transform="translate(32 44)" fill="#B8FF5B"/>
<rect width="4" height="4" transform="translate(36 44)" fill="#B8FF5B"/>
<rect width="4" height="4" transform="translate(40 44)" fill="#B8FF5B"/>
<rect width="4" height="4" transform="translate(44 44)" fill="#B8FF5B"/>
<rect width="4" height="4" transform="translate(48 44)" fill="#B8FF5B"/>
<rect width="4" height="4" transform="translate(52 44)" fill="#B8FF5B"/>
<rect width="4" height="4" transform="translate(56 44)" fill="#B8FF5B"/>
<rect width="4" height="4" transform="translate(60 44)" fill="#B8FF5B"/>
<rect width="4" height="4" transform="translate(16 48)" fill="#B8FF5B"/>
<rect width="4" height="4" transform="translate(20 48)" fill="#FC8D27"/>
<rect width="4" height="4" transform="translate(24 48)" fill="#FC8D27"/>
<rect width="4" height="4" transform="translate(28 48)" fill="#FC8D27"/>
<rect width="4" height="4" transform="translate(32 48)" fill="#FC8D27"/>
<rect width="4" height="4" transform="translate(36 48)" fill="#FC8D27"/>
<rect width="4" height="4" transform="translate(40 48)" fill="#B8FF5B"/>
<rect width="4" height="4" transform="translate(44 48)" fill="#B8FF5B"/>
<rect width="4" height="4" transform="translate(48 48)" fill="#B8FF5B"/>
<rect width="4" height="4" transform="translate(52 48)" fill="#B8FF5B"/>
<rect width="4" height="4" transform="translate(56 48)" fill="#B8FF5B"/>
<rect width="4" height="4" transform="translate(60 48)" fill="#B8FF5B"/>
<rect width="4" height="4" transform="translate(16 52)" fill="#B8FF5B"/>
<rect width="4" height="4" transform="translate(20 52)" fill="#B8FF5B"/>
<rect width="4" height="4" transform="translate(24 52)" fill="#B8FF5B"/>
<rect width="4" height="4" transform="translate(28 52)" fill="#B8FF5B"/>
<rect width="4" height="4" transform="translate(32 52)" fill="#B8FF5B"/>
<rect width="4" height="4" transform="translate(36 52)" fill="#B8FF5B"/>
<rect width="4" height="4" transform="translate(40 52)" fill="#B8FF5B"/>
<rect width="4" height="4" transform="translate(44 52)" fill="#B8FF5B"/>
<rect width="4" height="4" transform="translate(48 52)" fill="#B8FF5B"/>
<rect width="4" height="4" transform="translate(52 52)" fill="#B8FF5B"/>
<rect width="4" height="4" transform="translate(56 52)" fill="#B8FF5B"/>
<rect width="4" height="4" transform="translate(60 52)" fill="#B8FF5B"/>
<rect width="4" height="4" transform="translate(16 56)" fill="#B8FF5B"/>
<rect width="4" height="4" transform="translate(20 56)" fill="#FC8D27"/>
<rect width="4" height="4" transform="translate(24 56)" fill="#B8FF5B"/>
<rect width="4" height="4" transform="translate(28 56)" fill="#FC8D27"/>
<rect width="4" height="4" transform="translate(32 56)" fill="#B8FF5B"/>
<rect width="4" height="4" transform="translate(36 56)" fill="#B8FF5B"/>
<rect width="4" height="4" transform="translate(40 56)" fill="#B8FF5B"/>
<rect width="4" height="4" transform="translate(44 56)" fill="#B8FF5B"/>
<rect width="4" height="4" transform="translate(48 56)" fill="#B8FF5B"/>
<rect width="4" height="4" transform="translate(52 56)" fill="#B8FF5B"/>
<rect width="4" height="4" transform="translate(56 56)" fill="#B8FF5B"/>
<rect width="4" height="4" transform="translate(60 56)" fill="#B8FF5B"/>
<rect width="4" height="4" transform="translate(16 60)" fill="#B8FF5B"/>
<rect width="4" height="4" transform="translate(20 60)" fill="#B8FF5B"/>
<rect width="4" height="4" transform="translate(24 60)" fill="#B8FF5B"/>
<rect width="4" height="4" transform="translate(28 60)" fill="#B8FF5B"/>
<rect width="4" height="4" transform="translate(32 60)" fill="#B8FF5B"/>
<rect width="4" height="4" transform="translate(36 60)" fill="#B8FF5B"/>
<rect width="4" height="4" transform="translate(40 60)" fill="#B8FF5B"/>
<rect width="4" height="4" transform="translate(44 60)" fill="#B8FF5B"/>
<rect width="4" height="4" transform="translate(48 60)" fill="#B8FF5B"/>
<rect width="4" height="4" transform="translate(52 60)" fill="#B8FF5B"/>
<rect width="4" height="4" transform="translate(56 60)" fill="#B8FF5B"/>
<rect width="4" height="4" transform="translate(60 60)" fill="#B8FF5B"/>
</svg>
